<?xml version="1.0" encoding="UTF-8"?>
<svg id="Layer_1" xmlns="http://www.w3.org/2000/svg" version="1.1" viewBox="0 0 512 512">
  <!-- Generator: Adobe Illustrator 30.3.0, SVG Export Plug-In . SVG Version: 2.1.3 Build 182)  -->
  <defs>
    <style>
      .st0 {
        fill: #fff;
      }
    </style>
  </defs>
  <path class="st0" d="M496.1,329.8l-.6-1.8c-.2-.5-.4-1-.6-1.5-4.7-9.5-10.1-18.9-15.6-28-11.6-19.6-24.6-38.9-39-56.6-11.1-13.6-23.7-27-37.7-37.6-.9-.7-1.8-1.4-2.8-2.1-2.4-1.7-4.8-3.3-7.4-4.8-1.1-.7-2.3-1.3-3.3-2-5.6-3.1-11.5-5.6-17.7-7.3-1.6-.5-3.2-1-4.9-1.5.7-1.3,1.5-2.6,2.2-4l1.7-2.7c.5-.7.8-1.4,1.1-2.1.4-1,.9-1.9,1.2-2.9,5.1-10.5,9.6-21.4,13.8-32.3,8.7-23,16.6-47.3,23-71.1,1.4-5.1,0-10.1-3.8-13.7-3.7-3.6-8.8-4.8-13.9-3.3l-141.9,44.3-79.4-57.2c-4.1-3-9.2-3.5-14-1.4-4.7,2.1-7.6,6.4-8,11.5l-8.5,97.4L13.9,228.1c-4.5,2.8-6.8,7.4-6.6,12.6.3,5.2,3.2,9.5,8,11.8,22.2,10.7,45.7,20.6,68.8,28.9,11,4,22.2,7.7,33.6,10.6.9.4,2,.7,2.9,1,.8.3,1.5.4,2.3.5l3.1.5c1.5.3,3,.6,4.4.9-.7,1.5-1.5,3.1-2.1,4.7-2.7,5.8-4.7,11.9-6,18.2-.2,1.3-.5,2.5-.7,3.8-.5,2.9-.9,5.8-1.2,8.7v.2c0,1.1-.1,2.1-.2,3.2-1.1,17.6.8,35.8,3.9,53.1,4,22.5,10.1,44.9,17.3,66.5,3.4,10,7,20.3,11,30.1,1.9,4.6,5.8,7.6,10.7,8.4,5,.8,9.6-.9,12.8-4.7l120.7-141,185.6.5c4.9,0,9.3-2.4,11.9-6.6,2-3.2,2.6-6.8,1.8-10.3ZM290.4,332.3l-124.9,145.9s-.6-1.5-1.7-4.2l-.2-.5h0c-1.3-3.3-3.2-8.2-5.3-14.4v-.4c-.1,0-.1,0-.1,0-4.1-11.6-9.3-27.6-13.8-45.2h0s-.2-.7-.2-.7c-1.2-4.5-2.3-9.1-3.3-13.8h0s-.1-.4-.1-.4c-.7-3.2-1.4-6.4-2-9.6h0s0,0,0,0c-2.1-11.2-3.7-22.5-4.4-33.4h0s0-.1,0-.1c0-1.2-.1-2.5-.2-3.7h0s0-.2,0-.2c-.3-5.8-.2-11.5.1-17,0-.4,0-.9,0-1.3h0s0,0,0,0c0-.5,0-1.1,0-1.6.3-2.6.6-5.1,1.1-7.6,0-.6.2-1.3.3-1.9h0s0,0,0,0c0-.5.2-1,.3-1.5.7-3.5,1.7-6.9,2.9-10.1h0s0,0,0,0c.7-1.7,1.4-3.4,2.1-5.1.2-.5.4-1,.7-1.6h0s0,0,0,0l.5-1.1h.1s0-.2,0-.2c1.1-2.3,2.3-4.7,3.6-7,.7-1.2,1.4-2.3,2-3.3h0c2.5-4.1,4.5-7,6-8.6h0s0,0,0,0c.5-.6,1-1,1.4-1.3-2,0-3.9.1-5.9.2-1.9.3-4.4.3-7.6,0-4.1-.4-8.6-1.2-13.4-2.2l-3.6-.5c-.4-.1-.8-.3-1.2-.4h0s0,0,0,0c-.6-.2-1.2-.5-1.8-.7-42.1-10.8-100.5-38.8-100.5-38.8l132.1-82.3.8-9.6h0,0s6.2-71.6,6.2-71.6h0s0,0,0,0l.4-4.9h0s0,0,0,0l.4-4.9h0s0,0,0,0l1.1-13.1,85,61.3,148.6-46.4s-3.8,14.2-9.9,33.2h0s0,0,0,0c-2.2,7-4.8,14.8-7.6,22.7h0s0,0,0,0c-1,2.9-2.1,5.8-3.1,8.7h0s0,0,0,0c-1.2,3.3-2.5,6.6-3.7,9.8h0s0,0,0,0c-.7,1.8-1.4,3.7-2.2,5.5h0s0,0,0,0c-2,5-4.1,9.8-6.2,14.5h0s0,0,0,0c-1.1,2.4-2.2,4.7-3.3,6.9-.5,1-.8,2-1.2,3l-2,3.1c-2.3,4.3-4.7,8.2-7,11.6-1.8,2.6-3.5,4.5-4.9,5.7-1.3,1.5-2.7,2.9-4,4.4.8-.2,2.2-.2,4-.1h0s0,0,0,0c2.8.2,6.8.7,12,1.6,2.2.4,4.2.9,6.3,1.5h0s0,0,0,0c1.5.4,2.9.8,4.3,1.3.7.2,1.3.4,2,.6h0c0,0,.1,0,.1,0,4.2,1.3,8.5,3.1,12.7,5.5,1,.6,2,1.2,3,1.8,2.2,1.3,4.4,2.7,6.4,4.2.9.6,1.6,1.2,2.4,1.8.8.6,1.5,1.2,2.3,1.8h0c0,.1,0,0,0,0,.8.6,1.6,1.3,2.5,2v.2s.1,0,.1,0c.8.7,1.6,1.4,2.5,2.1h0c0,0,0,0,0,0,1.3,1.1,2.6,2.3,3.9,3.5h0c0,.1,0,.1,0,.1,1.8,1.7,3.6,3.4,5.3,5.1h0s0,0,0,0c6.6,6.6,13,13.8,19.1,21.3h0s0,0,0,0c2.7,3.3,5.4,6.7,7.9,10.2h0s0,0,0,0c10.3,13.6,19.3,27.5,26.6,39.3h0s0,0,0,0c.7,1.1,1.3,2.2,2,3.2h0c0,0,0,0,0,0,3.1,5.2,5.9,9.9,8.1,14h0s0,0,0,0c5,8.9,7.8,14.4,7.8,14.4l-192.1-.5Z"/>
  <path class="st0" d="M321.3,285.1c.5,1.1.9,2,1.2,2.5.7,1.8,1.5,3.2,2.1,4.1.7.9,1.5,1.8,2.5,2.5,2.6,1.9,5.6,3,8.8,3.2,4.5.3,9.1.6,13.5.9,8.1.5,14.1-2.1,18-7.9,5-7.6,4.6-18.2-.8-31.8-4-10.1-10.3-19.1-18.6-26.9-5.7-5.2-12.3-9.6-20-13.1-5.5-2.5-8.6-3.6-9.2-3.4-2.3,1.6-4.6,3.1-6.9,4.7h-.2c0,0,0,.1,0,.1-2.6,1.8-5.3,3.5-8,5.3h-.1s0,0,0,0c-1.9,1.2-3.8,2.4-5.7,3.6h0s-.3.2-.3.2c3.9,9.3,7.8,18.6,11.7,27.9,3.9,9.3,7.9,18.6,11.7,27.9ZM321,230.7c.5.2.9.5,1.4.7,6,2.7,11.5,6.2,16.2,10.6,6.6,6.2,11.8,13.5,15.2,21.9,1.7,4.4,5,14.1,2.3,18.8-1.5,1.8-3.3,1.9-5.6,1.7-4.5-.3-9.1-.6-13.6-.9-.4,0-.7-.1-1.1-.3-.2-.4-.3-.7-.4-1.1-.4-.8-.7-1.7-1.1-2.5-4-9.3-7.9-18.6-11.8-27.9-2.3-5.7-4.8-11.4-7.2-17.2,1.9-1.3,3.8-2.5,5.7-3.8Z"/>
  <path class="st0" d="M274,164.5c-.4,3,0,6.1,1.4,9.4,1.3,3.1,2.6,6.3,3.9,9.4h0s0,0,0,0c3.8,9,7.6,18,11.4,27,2.4-1.6,4.7-3.2,7.1-4.9,5.9-5.1,10.1-9.4,12.5-12.8,7.5-11,9.2-21.7,5.2-31.6-3.3-8-9.3-11.7-18-10.9-2.9.3-6.9,1.4-12.1,3.5-2.4,1.1-4.2,2-5.4,2.7-3.7,2.5-5.7,5.2-6.1,8.2ZM291,166.5c2.1-.8,5.7-2.3,7.8-2.5,2.4-.2,2.8,0,3.7,2.3,2.7,6.5.1,12.8-3.6,18.3-.8,1-1.6,2.1-2.5,3.1-2.7-6.4-5.5-12.8-8.1-19.3l-.3-.5c1-.5,2-1,3-1.5Z"/>
  <path class="st0" d="M226,355c2.8-3.6,5.5-7.3,8.2-10.9,2-2.6,3-5.6,3.3-8.8.1-1.2,0-2.4-.2-3.6-.3-1.1-.9-2.6-1.7-4.3-.3-.5-.7-1.4-1.2-2.5-4.5-9-9-18.1-13.5-27.1-4.5-9-9-18.1-13.5-27.1-5.3,1.6-10.7,3.2-16.1,4.7h0c0,0-3.1.8-3.1.8-1.7.5-3.4.9-5,1.3-.6.4-1.8,3.5-3.5,9.3-2.4,8.1-3.3,16-3.1,23.7.6,11.3,3.3,22,8.3,31.6,6.8,13,14.6,20.2,23.5,21.4,7.1.7,12.9-2.2,17.7-8.6ZM223.1,335.7c-2.8,3.6-5.5,7.3-8.2,10.9-1.4,1.8-2.7,3.2-5,3.1-5.4-1-10.6-9.8-12.8-14-4.1-8-6.3-16.8-6.6-25.8-.3-6.5.7-13,2.5-19.2.1-.5.3-1,.4-1.5,2.2-.6,4.5-1.2,6.6-1.8,2.8,5.6,5.5,11.1,8.3,16.7,4.5,9,9,18.1,13.5,27.1.4.8.8,1.6,1.2,2.4.2.3.3.7.5,1.1,0,.4-.3.7-.5,1Z"/>
  <path class="st0" d="M171.4,256.4c4.3.4,10.3,0,18-1.1,2.8-.7,5.6-1.5,8.3-2.2-5.8-11.8-11.8-23.6-17.6-35.4-1.7-3.2-3.6-5.6-6.3-7.2-2.5-1.6-5.9-1.9-10.1-.7-1.3.5-3.2,1.3-5.6,2.4-5,2.6-8.5,4.8-10.6,6.9-6.2,6-7.4,13-3.4,20.7,4.9,9.5,14,15.2,27.3,16.7ZM157.3,228.9c1.5-1.5,4.9-3.3,6.9-4.3,1-.5,2-.9,3.1-1.3l.3.5c3.2,6.2,6.2,12.5,9.3,18.7-1.4,0-2.8,0-4,0-6.6-.8-13.1-3-16.3-9.2-1.2-2.2-1.1-2.6.7-4.3Z"/>
  <path class="st0" d="M196.4,83.5l-3.8-2.7c0,.2,0,.4.1.6.5,1.6,2.1,2.5,3.7,2.1Z"/>
  <path class="st0" d="M186.8,92.5c.5,1.7,2.2,2.6,3.9,2.1,1.7-.5,2.6-2.2,2.1-3.9-.5-1.7-2.3-2.6-3.9-2.1-1.7.5-2.6,2.3-2.1,3.9Z"/>
  <path class="st0" d="M183,99.7c-1.6.5-2.6,2.3-2.1,3.9.5,1.6,2.3,2.6,3.9,2.1,1.6-.5,2.6-2.3,2.1-3.9-.5-1.7-2.3-2.6-3.9-2.1Z"/>
  <path class="st0" d="M177.1,110.8c-1.6.5-2.6,2.3-2.1,3.9.5,1.6,2.3,2.6,3.9,2.1,1.6-.5,2.6-2.3,2.1-3.9-.5-1.6-2.3-2.6-3.9-2.1Z"/>
  <path class="st0" d="M171.2,121.8c-1.7.5-2.6,2.3-2.1,3.9.5,1.6,2.3,2.6,3.9,2.1,1.6-.5,2.6-2.3,2.1-3.9-.5-1.6-2.3-2.6-3.9-2.1Z"/>
  <path class="st0" d="M165.3,132.9c-1.6.5-2.6,2.3-2.1,3.9.5,1.6,2.3,2.6,3.9,2.1,1.7-.5,2.6-2.3,2.1-3.9-.5-1.6-2.3-2.6-3.9-2.1Z"/>
  <path class="st0" d="M161.2,150c1.6-.5,2.6-2.3,2.1-3.9-.5-1.6-2.3-2.6-3.9-2.1-.2,0-.4.1-.6.2l-.4,5.2c.8.6,1.8.8,2.8.5Z"/>
  <path class="st0" d="M149.4,172.2c1.7-.5,2.6-2.3,2.1-3.9-.5-1.6-2.2-2.5-3.8-2.1l-1.6,1c-.7.8-.9,1.9-.6,2.9.5,1.7,2.2,2.6,3.9,2.1Z"/>
  <path class="st0" d="M143.5,183.3c1.6-.5,2.6-2.2,2.1-3.9-.5-1.7-2.3-2.6-3.9-2.1-1.6.5-2.6,2.3-2.1,3.9.5,1.7,2.3,2.6,3.9,2.1Z"/>
  <path class="st0" d="M133.7,192.3c.5,1.6,2.3,2.6,3.9,2.1,1.6-.5,2.6-2.3,2.1-3.9-.5-1.6-2.3-2.6-3.9-2.1-1.6.5-2.6,2.3-2.1,3.9Z"/>
  <path class="st0" d="M127.8,203.4c.5,1.7,2.3,2.6,3.9,2.1,1.6-.5,2.6-2.3,2.1-3.9-.5-1.6-2.3-2.6-3.9-2.1-1.6.5-2.6,2.3-2.1,3.9Z"/>
  <path class="st0" d="M125.8,216.5c1.6-.5,2.6-2.3,2.1-3.9-.5-1.7-2.3-2.6-3.9-2.1-1.6.5-2.6,2.3-2.1,3.9.5,1.6,2.3,2.6,3.9,2.1Z"/>
  <path class="st0" d="M120,227.6c1.6-.5,2.6-2.2,2.1-3.9-.5-1.6-2.3-2.6-3.9-2.1-1.6.5-2.6,2.3-2.1,3.9.5,1.6,2.3,2.6,3.9,2.1Z"/>
  <path class="st0" d="M112.2,232.7c-1.6.5-2.6,2.3-2.1,3.9.5,1.6,2.3,2.6,3.9,2.1,1.6-.5,2.6-2.3,2.1-3.9-.5-1.6-2.3-2.6-3.9-2.1Z"/>
  <path class="st0" d="M110.2,245.9c-.5-1.6-2.3-2.6-3.9-2.1-1.6.5-2.6,2.3-2.1,3.9.5,1.7,2.3,2.6,3.9,2.1,1.6-.5,2.6-2.3,2.1-3.9Z"/>
  <path class="st0" d="M100.4,254.9c-1.6.5-2.6,2.3-2.1,3.9.5,1.6,2.2,2.6,3.9,2.1,1.7-.5,2.6-2.2,2.1-3.9-.5-1.7-2.3-2.6-3.9-2.1Z"/>
  <path class="st0" d="M185.4,77.3c.5-.2.9-.4,1.3-.8l-4.6-3.3c-.4.7-.5,1.4-.2,2.2.5,1.5,2.1,2.4,3.6,1.9Z"/>
  <path class="st0" d="M175.9,86.5c.5,1.5,2.1,2.4,3.6,1.9,1.5-.5,2.4-2.1,1.9-3.6-.5-1.5-2.1-2.4-3.6-1.9-1.5.5-2.4,2.1-1.9,3.6Z"/>
  <path class="st0" d="M170.1,97.6c.5,1.5,2.1,2.4,3.6,1.9,1.5-.5,2.4-2.1,1.9-3.6-.5-1.5-2.1-2.4-3.6-1.9-1.5.5-2.4,2.1-1.9,3.6Z"/>
  <path class="st0" d="M164.2,108.7c.5,1.5,2.1,2.4,3.6,1.9,1.5-.5,2.4-2.1,1.9-3.6-.5-1.5-2.1-2.4-3.6-1.9-1.5.5-2.4,2.1-1.9,3.6Z"/>
  <path class="st0" d="M163.8,118.1c-.4-1.2-1.4-1.9-2.5-2l-.5,5.7c.4,0,.7,0,1.1-.1,1.5-.5,2.4-2.1,1.9-3.6Z"/>
  <path class="st0" d="M132.4,177.1c1.2-.4,2-1.5,2-2.7l-4.1,2.5c.6.3,1.3.3,2,.1Z"/>
  <path class="st0" d="M126.5,188.2c1.5-.5,2.4-2.1,1.9-3.6-.5-1.5-2.1-2.4-3.6-1.9-1.5.5-2.4,2.1-1.9,3.6.5,1.5,2.1,2.4,3.6,1.9Z"/>
  <path class="st0" d="M120.6,199.3c1.5-.5,2.4-2.1,1.9-3.6-.5-1.5-2.1-2.4-3.6-1.9s-2.4,2.1-1.9,3.6c.5,1.5,2.1,2.4,3.6,1.9Z"/>
  <path class="st0" d="M111.1,208.5c.5,1.5,2.1,2.4,3.6,1.9,1.5-.5,2.4-2.1,1.9-3.6-.5-1.5-2.1-2.4-3.6-1.9-1.5.5-2.4,2.1-1.9,3.6Z"/>
  <path class="st0" d="M105.2,219.6c.5,1.5,2.1,2.4,3.6,1.9,1.5-.5,2.4-2.1,1.9-3.6-.5-1.5-2.1-2.4-3.6-1.9-1.5.5-2.4,2.1-1.9,3.6Z"/>
  <path class="st0" d="M99.3,230.7c.5,1.5,2.1,2.4,3.6,1.9,1.5-.5,2.4-2.1,1.9-3.6-.5-1.5-2.1-2.4-3.6-1.9-1.5.5-2.4,2.1-1.9,3.6Z"/>
  <path class="st0" d="M98.9,240.1c-.5-1.5-2.1-2.4-3.6-1.9-1.5.5-2.4,2.1-1.9,3.6.5,1.5,2.1,2.4,3.6,1.9,1.5-.5,2.4-2.1,1.9-3.6Z"/>
  <path class="st0" d="M89.4,249.3c-1.5.5-2.4,2.1-1.9,3.6.5,1.5,2.1,2.4,3.6,1.9,1.5-.5,2.4-2.1,1.9-3.6-.5-1.5-2.1-2.4-3.6-1.9Z"/>
  <path class="st0" d="M83.5,260.4c-.4.1-.8.3-1.1.6,1.6.6,3.2,1.2,4.8,1.8,0-.2,0-.3-.1-.5-.5-1.5-2.1-2.4-3.6-1.9Z"/>
  <path class="st0" d="M174.3,71.1c1-.3,1.7-1.2,1.8-2.3l-3.5-2.5c-1.2.5-1.8,1.8-1.5,3.1.4,1.3,1.8,2.1,3.2,1.7Z"/>
  <path class="st0" d="M168.4,82.2c1.3-.4,2.1-1.8,1.7-3.2-.4-1.3-1.8-2.1-3.2-1.7-1.3.4-2.1,1.8-1.7,3.2.4,1.3,1.8,2.1,3.2,1.7Z"/>
  <path class="st0" d="M164.2,90.1c-.1-.4-.3-.7-.6-1l-.3,3.8c.8-.6,1.2-1.7.9-2.8Z"/>
  <path class="st0" d="M109.4,193.1c1.3-.4,2.1-1.8,1.7-3.2,0-.3-.2-.5-.3-.7l-4.3,2.7c.6,1,1.8,1.5,3,1.2Z"/>
  <path class="st0" d="M103.5,204.2c1.3-.4,2.1-1.8,1.7-3.2-.4-1.3-1.8-2.1-3.2-1.7-1.3.4-2.1,1.8-1.7,3.2.4,1.3,1.8,2.1,3.2,1.7Z"/>
  <path class="st0" d="M97.6,215.3c1.3-.4,2.1-1.8,1.7-3.2-.4-1.3-1.8-2.1-3.2-1.7-1.3.4-2.1,1.8-1.7,3.2.4,1.3,1.8,2.1,3.2,1.7Z"/>
  <path class="st0" d="M91.7,226.4c1.3-.4,2.1-1.8,1.7-3.2-.4-1.3-1.8-2.1-3.2-1.7-1.3.4-2.1,1.8-1.7,3.2.4,1.3,1.8,2.1,3.2,1.7Z"/>
  <path class="st0" d="M85.8,237.5c1.3-.4,2.1-1.8,1.7-3.2-.4-1.3-1.8-2.1-3.2-1.7-1.3.4-2.1,1.8-1.7,3.2.4,1.3,1.8,2.1,3.2,1.7Z"/>
  <path class="st0" d="M78.4,243.7c-1.3.4-2.1,1.8-1.7,3.2.4,1.3,1.8,2.1,3.2,1.7,1.3-.4,2.1-1.8,1.7-3.2-.4-1.3-1.8-2.1-3.2-1.7Z"/>
  <path class="st0" d="M72.5,254.8c-.8.3-1.4.9-1.7,1.6,1.6.6,3.2,1.3,4.7,1.9.3-.6.3-1.2.1-1.8-.4-1.3-1.8-2.1-3.2-1.7Z"/>
  <path class="st0" d="M86.4,209c1.1-.3,1.8-1.5,1.4-2.7-.3-.9-1.2-1.5-2.1-1.5l-1.9,1.2c-.2.5-.3,1-.1,1.6.3,1.1,1.5,1.8,2.7,1.4Z"/>
  <path class="st0" d="M79.2,216c-1.1.3-1.8,1.5-1.4,2.7.3,1.1,1.5,1.8,2.7,1.4,1.1-.3,1.8-1.5,1.4-2.7-.3-1.1-1.5-1.8-2.7-1.4Z"/>
  <path class="st0" d="M73.4,227.1c-1.1.3-1.8,1.5-1.4,2.7.3,1.1,1.5,1.8,2.7,1.4,1.1-.3,1.8-1.5,1.4-2.7-.3-1.1-1.5-1.8-2.7-1.4Z"/>
  <path class="st0" d="M67.5,238.2c-1.1.3-1.8,1.5-1.4,2.7.3,1.1,1.5,1.8,2.7,1.4,1.1-.3,1.8-1.5,1.4-2.7-.3-1.1-1.5-1.8-2.7-1.4Z"/>
  <path class="st0" d="M61.6,249.3c-1.1.3-1.8,1.5-1.4,2.7h0c0,0,2.9,1.3,2.9,1.3.9-.4,1.4-1.5,1.1-2.6-.3-1.1-1.5-1.8-2.7-1.4Z"/>
  <path class="st0" d="M62.4,221.7c-.9.3-1.3,1.2-1.1,2,.3.9,1.2,1.3,2,1.1.9-.3,1.3-1.2,1.1-2-.3-.9-1.2-1.3-2-1.1Z"/>
  <path class="st0" d="M56.5,232.8c-.9.3-1.3,1.2-1.1,2,.3.9,1.2,1.3,2,1.1.9-.3,1.3-1.2,1.1-2-.3-.9-1.2-1.3-2-1.1Z"/>
  <path class="st0" d="M50.6,243.9c-.9.3-1.3,1.2-1.1,2,.3.9,1.2,1.3,2,1.1.9-.3,1.3-1.2,1.1-2-.3-.9-1.2-1.3-2-1.1Z"/>
  <path class="st0" d="M39.7,238.5c-.5.2-.9.7-.7,1.3.2.5.7.9,1.3.7.5-.2.9-.7.7-1.3-.2-.5-.7-.9-1.3-.7Z"/>
  <path class="st0" d="M201.9,100.7c1.8-.5,2.8-2.4,2.2-4.2-.5-1.8-2.4-2.8-4.2-2.2-1.8.5-2.8,2.4-2.2,4.2.5,1.8,2.4,2.8,4.2,2.2Z"/>
  <path class="st0" d="M194,105.3c-1.8.5-2.8,2.4-2.2,4.2.5,1.8,2.4,2.8,4.2,2.2,1.8-.5,2.8-2.4,2.2-4.2-.5-1.8-2.4-2.8-4.2-2.2Z"/>
  <path class="st0" d="M188.1,116.4c-1.8.5-2.8,2.4-2.2,4.2.5,1.8,2.4,2.8,4.2,2.2,1.8-.5,2.8-2.4,2.2-4.2-.5-1.8-2.4-2.8-4.2-2.2Z"/>
  <path class="st0" d="M182.2,127.5c-1.8.5-2.8,2.4-2.2,4.2.5,1.8,2.4,2.8,4.2,2.2,1.8-.5,2.8-2.4,2.2-4.2-.5-1.8-2.4-2.8-4.2-2.2Z"/>
  <path class="st0" d="M176.3,138.6c-1.8.5-2.8,2.4-2.2,4.2.5,1.8,2.4,2.8,4.2,2.2,1.8-.5,2.8-2.4,2.2-4.2-.5-1.8-2.4-2.8-4.2-2.2Z"/>
  <path class="st0" d="M170.4,149.7c-1.8.5-2.8,2.4-2.2,4.2.5,1.8,2.4,2.8,4.2,2.2,1.8-.5,2.8-2.4,2.2-4.2-.5-1.8-2.4-2.8-4.2-2.2Z"/>
  <path class="st0" d="M162.3,165c.5,1.8,2.4,2.8,4.2,2.2,1.8-.5,2.8-2.4,2.2-4.2-.5-1.8-2.4-2.8-4.2-2.2-1.8.5-2.8,2.4-2.2,4.2Z"/>
  <path class="st0" d="M160.6,178.3c1.8-.5,2.8-2.4,2.2-4.2-.5-1.8-2.4-2.8-4.2-2.2-1.8.5-2.8,2.4-2.2,4.2.5,1.8,2.4,2.8,4.2,2.2Z"/>
  <path class="st0" d="M150.5,187.2c.5,1.8,2.4,2.8,4.2,2.2,1.8-.5,2.8-2.4,2.2-4.2-.5-1.8-2.4-2.8-4.2-2.2-1.8.5-2.8,2.4-2.2,4.2Z"/>
  <path class="st0" d="M148.8,200.5c1.8-.5,2.8-2.4,2.2-4.2-.5-1.8-2.4-2.8-4.2-2.2-1.8.5-2.8,2.4-2.2,4.2.5,1.8,2.4,2.8,4.2,2.2Z"/>
  <path class="st0" d="M142.9,211.6c1.8-.5,2.8-2.4,2.2-4.2-.5-1.8-2.4-2.8-4.2-2.2-1.8.5-2.8,2.4-2.2,4.2.5,1.8,2.4,2.8,4.2,2.2Z"/>
  <path class="st0" d="M139.2,218.5c-.5-1.8-2.4-2.8-4.2-2.2-1.8.5-2.8,2.4-2.2,4.2.5,1.8,2.4,2.8,4.2,2.2,1.8-.5,2.8-2.4,2.2-4.2Z"/>
  <path class="st0" d="M131.1,233.7c1.8-.5,2.8-2.4,2.2-4.2-.5-1.8-2.4-2.8-4.2-2.2-1.8.5-2.8,2.4-2.2,4.2.5,1.8,2.4,2.8,4.2,2.2Z"/>
  <path class="st0" d="M125.2,244.8c1.8-.5,2.8-2.4,2.2-4.2-.5-1.8-2.4-2.8-4.2-2.2-1.8.5-2.8,2.4-2.2,4.2.5,1.8,2.4,2.8,4.2,2.2Z"/>
  <path class="st0" d="M121.5,251.7c-.5-1.8-2.4-2.8-4.2-2.2-1.8.5-2.8,2.4-2.2,4.2.5,1.8,2.4,2.8,4.2,2.2,1.8-.5,2.8-2.4,2.2-4.2Z"/>
  <path class="st0" d="M111.5,260.6c-1.8.5-2.8,2.4-2.2,4.2.5,1.8,2.4,2.8,4.2,2.2,1.8-.5,2.8-2.4,2.2-4.2-.5-1.8-2.4-2.8-4.2-2.2Z"/>
  <path class="st0" d="M213,106.8c1.9-.6,2.9-2.6,2.4-4.4-.6-1.9-2.6-2.9-4.4-2.4-1.9.6-2.9,2.6-2.4,4.4.6,1.9,2.6,2.9,4.4,2.4Z"/>
  <path class="st0" d="M202.7,115.5c.6,1.9,2.6,2.9,4.4,2.4,1.9-.6,2.9-2.6,2.4-4.4-.6-1.9-2.6-2.9-4.4-2.4-1.9.6-2.9,2.6-2.4,4.4Z"/>
  <path class="st0" d="M199.1,122.1c-1.9.6-2.9,2.6-2.4,4.4.6,1.9,2.6,2.9,4.4,2.4,1.9-.6,2.9-2.6,2.4-4.4-.6-1.9-2.6-2.9-4.4-2.4Z"/>
  <path class="st0" d="M193.2,133.2c-1.9.6-2.9,2.6-2.4,4.4.6,1.9,2.6,2.9,4.4,2.4,1.9-.6,2.9-2.6,2.4-4.4-.6-1.9-2.6-2.9-4.4-2.4Z"/>
  <path class="st0" d="M187.3,144.3c-1.9.6-2.9,2.6-2.4,4.4.6,1.9,2.6,2.9,4.4,2.4,1.9-.6,2.9-2.6,2.4-4.4-.6-1.9-2.6-2.9-4.4-2.4Z"/>
  <path class="st0" d="M183.5,162.2c1.9-.6,2.9-2.6,2.4-4.4-.6-1.9-2.6-2.9-4.4-2.4-1.9.6-2.9,2.6-2.4,4.4.6,1.9,2.6,2.9,4.4,2.4Z"/>
  <path class="st0" d="M175.6,166.5c-1.9.6-2.9,2.6-2.4,4.4.6,1.9,2.6,2.9,4.4,2.4,1.9-.6,2.9-2.6,2.4-4.4-.6-1.9-2.6-2.9-4.4-2.4Z"/>
  <path class="st0" d="M167.3,182c.6,1.9,2.6,2.9,4.4,2.4,1.9-.6,2.9-2.6,2.4-4.4-.6-1.9-2.6-2.9-4.4-2.4-1.9.6-2.9,2.6-2.4,4.4Z"/>
  <path class="st0" d="M161.4,193.1c.6,1.9,2.6,2.9,4.4,2.4,1.9-.6,2.9-2.6,2.4-4.4-.6-1.9-2.6-2.9-4.4-2.4-1.9.6-2.9,2.6-2.4,4.4Z"/>
  <path class="st0" d="M157.9,199.8c-1.9.6-2.9,2.6-2.4,4.4.4,1.2,1.4,2.1,2.6,2.4,1.2-.5,2.5-1.1,3.8-1.5h.1c.5-.9.7-1.9.4-3-.6-1.9-2.6-2.9-4.4-2.4Z"/>
  <path class="st0" d="M137.7,236.3c0,.4,0,.8.2,1.1.1.4.3.8.6,1.1-.3-.8-.5-1.5-.7-2.2Z"/>
  <path class="st0" d="M136.4,250.9c1.9-.6,2.9-2.6,2.4-4.4-.6-1.9-2.6-2.9-4.4-2.4-1.9.6-2.9,2.6-2.4,4.4.6,1.9,2.6,2.9,4.4,2.4Z"/>
  <path class="st0" d="M132.8,257.6c-.6-1.9-2.6-2.9-4.4-2.4-1.9.6-2.9,2.6-2.4,4.4.6,1.9,2.6,2.9,4.4,2.4,1.9-.6,2.9-2.6,2.4-4.4Z"/>
  <path class="st0" d="M122.5,266.3c-1.9.6-2.9,2.6-2.4,4.4.6,1.9,2.6,2.9,4.4,2.4,1.9-.6,2.9-2.6,2.4-4.4-.6-1.9-2.6-2.9-4.4-2.4Z"/>
  <path class="st0" d="M224.2,112.9c2-.6,3.1-2.7,2.5-4.7-.6-2-2.7-3.1-4.7-2.5-2,.6-3.1,2.7-2.5,4.7.6,2,2.7,3.1,4.7,2.5Z"/>
  <path class="st0" d="M213.6,121.4c.6,2,2.7,3.1,4.7,2.5,2-.6,3.1-2.7,2.5-4.7-.6-2-2.7-3.1-4.7-2.5-2,.6-3.1,2.7-2.5,4.7Z"/>
  <path class="st0" d="M210.2,127.8c-2,.6-3.1,2.7-2.5,4.7.6,2,2.7,3.1,4.7,2.5,2-.6,3.1-2.7,2.5-4.7-.6-2-2.7-3.1-4.7-2.5Z"/>
  <path class="st0" d="M204.3,138.9c-2,.6-3.1,2.7-2.5,4.7.6,2,2.7,3.1,4.7,2.5,2-.6,3.1-2.7,2.5-4.7-.6-2-2.7-3.1-4.7-2.5Z"/>
  <path class="st0" d="M198.4,150c-2,.6-3.1,2.7-2.5,4.7.6,2,2.7,3.1,4.7,2.5,2-.6,3.1-2.7,2.5-4.7-.6-2-2.7-3.1-4.7-2.5Z"/>
  <path class="st0" d="M192.5,161.1c-2,.6-3.1,2.7-2.5,4.7.6,2,2.7,3.1,4.7,2.5,2-.6,3.1-2.7,2.5-4.7-.6-2-2.7-3.1-4.7-2.5Z"/>
  <path class="st0" d="M188.8,179.4c2-.6,3.1-2.7,2.5-4.7-.6-2-2.7-3.1-4.7-2.5-2,.6-3.1,2.7-2.5,4.7.6,2,2.7,3.1,4.7,2.5Z"/>
  <path class="st0" d="M182.9,190.5c2-.6,3.1-2.7,2.5-4.7-.6-2-2.7-3.1-4.7-2.5-2,.6-3.1,2.7-2.5,4.7.6,2,2.7,3.1,4.7,2.5Z"/>
  <path class="st0" d="M177,201.6c2-.6,3.1-2.7,2.5-4.7-.6-2-2.7-3.1-4.7-2.5-2,.6-3.1,2.7-2.5,4.7.6,2,2.7,3.1,4.7,2.5Z"/>
  <path class="st0" d="M150.2,253.6c-1.6-1.1-3.2-2.4-4.6-3.9-.1,0-.2,0-.3,0-2,.6-3.1,2.7-2.5,4.7.6,2,2.7,3.1,4.7,2.5,1.6-.5,2.6-1.9,2.7-3.5Z"/>
  <path class="st0" d="M144.1,263.4c-.6-2-2.7-3.1-4.7-2.5-2,.6-3.1,2.7-2.5,4.7.6,2,2.7,3.1,4.7,2.5,2-.6,3.1-2.7,2.5-4.7Z"/>
  <path class="st0" d="M133.5,272c-1.7.5-2.8,2.2-2.7,4,2.4.5,4.8.9,7.2,1.3.4-.8.5-1.8.2-2.7-.6-2-2.7-3.1-4.7-2.5Z"/>
  <path class="st0" d="M235.3,119c2.1-.6,3.3-2.9,2.7-5,0-.2-.2-.5-.3-.7l-2.9-2.1c-.6,0-1.2,0-1.8.1-2.1.6-3.3,2.9-2.7,5,.6,2.1,2.9,3.3,5,2.7Z"/>
  <path class="st0" d="M224.4,127.4c.6,2.1,2.9,3.3,5,2.7,2.1-.6,3.3-2.9,2.7-5-.6-2.1-2.9-3.3-5-2.7-2.1.6-3.3,2.9-2.7,5Z"/>
  <path class="st0" d="M221.2,133.5c-2.1.6-3.3,2.9-2.7,5,.6,2.1,2.9,3.3,5,2.7,2.1-.6,3.3-2.9,2.7-5-.6-2.1-2.9-3.3-5-2.7Z"/>
  <path class="st0" d="M215.3,144.6c-2.1.6-3.3,2.9-2.7,5,.6,2.1,2.9,3.3,5,2.7,2.1-.6,3.3-2.9,2.7-5-.6-2.1-2.9-3.3-5-2.7Z"/>
  <path class="st0" d="M209.4,155.7c-2.1.6-3.3,2.9-2.7,5,.6,2.1,2.9,3.3,5,2.7,2.1-.6,3.3-2.9,2.7-5-.6-2.1-2.9-3.3-5-2.7Z"/>
  <path class="st0" d="M203.5,166.8c-2.1.6-3.3,2.9-2.7,5,.6,2.1,2.9,3.3,5,2.7,2.1-.6,3.3-2.9,2.7-5-.6-2.1-2.9-3.3-5-2.7Z"/>
  <path class="st0" d="M197.6,177.9c-2.1.6-3.3,2.9-2.7,5,.6,2.1,2.9,3.3,5,2.7,2.1-.6,3.3-2.9,2.7-5-.6-2.1-2.9-3.3-5-2.7Z"/>
  <path class="st0" d="M194.1,196.6c2.1-.6,3.3-2.9,2.7-5-.6-2.1-2.9-3.3-5-2.7-2.1.6-3.3,2.9-2.7,5,.6,2.1,2.9,3.3,5,2.7Z"/>
  <path class="st0" d="M188.2,207.7c2.1-.6,3.3-2.9,2.7-5-.6-2.1-2.9-3.3-5-2.7-2.1.6-3.3,2.9-2.7,5,.6,2.1,2.9,3.3,5,2.7Z"/>
  <path class="st0" d="M184.7,216.7c.4-.9.5-1.9.2-2.9-.5-1.7-2-2.8-3.7-2.8,1,1.3,1.9,2.8,2.7,4.3l.7,1.5Z"/>
  <path class="st0" d="M158.7,263.1c1.9-.6,3-2.4,2.8-4.2-2.3-.7-4.5-1.5-6.6-2.6-1.1,1-1.6,2.6-1.2,4.2.6,2.1,2.9,3.3,5,2.7Z"/>
  <path class="st0" d="M155.4,269.2c-.6-2.1-2.9-3.3-5-2.7-2.1.6-3.3,2.9-2.7,5,.6,2.1,2.9,3.3,5,2.7,2.1-.6,3.3-2.9,2.7-5Z"/>
  <path class="st0" d="M144.5,277.7c-.2,0-.4.1-.5.2,1.1,0,2.3,0,3.4,0-.9-.4-1.9-.5-2.8-.2Z"/>
  <path class="st0" d="M246.5,125.1c2.2-.7,3.5-3,2.8-5.3-.1-.4-.3-.8-.6-1.2h-.3c-1.4.5-2.9.3-4.1-.6l-1-.7c-1.8.9-2.7,3-2.1,5,.7,2.2,3,3.5,5.3,2.8Z"/>
  <path class="st0" d="M235.3,133.4c.7,2.2,3,3.5,5.3,2.8,2.2-.7,3.5-3,2.8-5.3-.7-2.2-3-3.5-5.3-2.8-2.2.7-3.5,3-2.8,5.3Z"/>
  <path class="st0" d="M232.2,139.2c-2.2.7-3.5,3-2.8,5.3.7,2.2,3,3.5,5.3,2.8,2.2-.7,3.5-3,2.8-5.3-.7-2.2-3-3.5-5.3-2.8Z"/>
  <path class="st0" d="M226.3,150.3c-2.2.7-3.5,3-2.8,5.3.7,2.2,3,3.5,5.3,2.8,2.2-.7,3.5-3,2.8-5.3-.7-2.2-3-3.5-5.3-2.8Z"/>
  <path class="st0" d="M220.4,161.4c-2.2.7-3.5,3-2.8,5.3.7,2.2,3,3.5,5.3,2.8,2.2-.7,3.5-3,2.8-5.3-.7-2.2-3-3.5-5.3-2.8Z"/>
  <path class="st0" d="M214.5,172.5c-2.2.7-3.5,3-2.8,5.3.7,2.2,3,3.5,5.3,2.8,2.2-.7,3.5-3,2.8-5.3-.7-2.2-3-3.5-5.3-2.8Z"/>
  <path class="st0" d="M208.6,183.5c-2.2.7-3.5,3-2.8,5.3.7,2.2,3,3.5,5.3,2.8,2.2-.7,3.5-3,2.8-5.3-.7-2.2-3-3.5-5.3-2.8Z"/>
  <path class="st0" d="M202.7,194.6c-2.2.7-3.5,3-2.8,5.3.7,2.2,3,3.5,5.3,2.8,2.2-.7,3.5-3,2.8-5.3-.7-2.2-3-3.5-5.3-2.8Z"/>
  <path class="st0" d="M199.3,213.8c2.2-.7,3.5-3,2.8-5.3-.7-2.2-3-3.5-5.3-2.8-2.2.7-3.5,3-2.8,5.3.7,2.2,3,3.5,5.3,2.8Z"/>
  <path class="st0" d="M193.4,224.9c2.2-.7,3.5-3,2.8-5.3-.7-2.2-3-3.5-5.3-2.8-2.2.7-3.5,3-2.8,5.3.7,2.2,3,3.5,5.3,2.8Z"/>
  <path class="st0" d="M167.4,261.2c-2.2.7-3.5,3-2.8,5.3.7,2.2,3,3.5,5.3,2.8,2.2-.7,3.5-3,2.8-5.3-.7-2.2-3-3.5-5.3-2.8Z"/>
  <path class="st0" d="M163.9,280.3c2.2-.7,3.5-3,2.8-5.3-.7-2.2-3-3.5-5.3-2.8-2.2.7-3.5,3-2.8,5.3.7,2.2,3,3.5,5.3,2.8Z"/>
  <path class="st0" d="M158,291.4c2.2-.7,3.5-3,2.8-5.3-.3-.9-.8-1.6-1.5-2.2-.3.7-.9,1.4-1.6,1.9,0,0-.2.2-.3.3-.2.3-.4.5-.6.7-.9,1.1-1.9,2.4-2.8,3.7,1.1.9,2.5,1.3,4,.8Z"/>
  <path class="st0" d="M152.1,302.5c2.2-.7,3.5-3,2.8-5.3-.5-1.5-1.8-2.6-3.2-2.9v.2c-.8,1.1-1.4,2.1-2,3.2-.7,1.2-1.3,2.4-1.9,3.6,1.1,1.2,2.8,1.7,4.4,1.2Z"/>
  <path class="st0" d="M146.2,313.6c2.2-.7,3.5-3,2.8-5.3-.5-1.6-1.8-2.6-3.3-2.9v.2c-.3.4-.5.9-.7,1.4,0,0,0,0,0,.2-.7,1.4-1.3,2.8-1.8,4.3,0,.3-.2.6-.3.9l-.2.6c1,.7,2.4,1,3.7.6Z"/>
  <path class="st0" d="M143.1,319.4c-.3-1-1-1.8-1.8-2.4-.4,1.4-.7,2.8-1,4.3,0,.5-.2,1-.3,1.5h0c0,.5-.2,1-.2,1.6,0,.1,0,.2,0,.3h0c.2,0,.4,0,.7,0,2.2-.7,3.5-3,2.8-5.3Z"/>
  <path class="st0" d="M263.5,120.1c2.3-.7,3.7-3.2,2.9-5.5-.1-.5-.4-.9-.6-1.3l-8.1,2.5c0,.4,0,.9.2,1.4.7,2.3,3.2,3.7,5.5,2.9Z"/>
  <path class="st0" d="M257.6,131.2c2.3-.7,3.7-3.2,2.9-5.5-.7-2.3-3.2-3.7-5.5-2.9-2.3.7-3.7,3.2-2.9,5.5.7,2.3,3.2,3.7,5.5,2.9Z"/>
  <path class="st0" d="M246.2,139.3c.7,2.3,3.2,3.7,5.5,2.9,2.3-.7,3.7-3.2,2.9-5.5-.7-2.3-3.2-3.7-5.5-2.9-2.3.7-3.7,3.2-2.9,5.5Z"/>
  <path class="st0" d="M243.2,144.9c-2.3.7-3.7,3.2-2.9,5.5.7,2.3,3.2,3.7,5.5,2.9,2.3-.7,3.7-3.2,2.9-5.5-.7-2.3-3.2-3.7-5.5-2.9Z"/>
  <path class="st0" d="M237.3,156c-2.3.7-3.7,3.2-2.9,5.5.7,2.3,3.2,3.7,5.5,2.9,2.3-.7,3.7-3.2,2.9-5.5-.7-2.3-3.2-3.7-5.5-2.9Z"/>
  <path class="st0" d="M231.5,167.1c-2.3.7-3.7,3.2-2.9,5.5.7,2.3,3.2,3.7,5.5,2.9,2.3-.7,3.7-3.2,2.9-5.5-.7-2.3-3.2-3.7-5.5-2.9Z"/>
  <path class="st0" d="M225.6,178.1c-2.3.7-3.7,3.2-2.9,5.5.7,2.3,3.2,3.7,5.5,2.9,2.3-.7,3.7-3.2,2.9-5.5-.7-2.3-3.2-3.7-5.5-2.9Z"/>
  <path class="st0" d="M219.7,189.2c-2.3.7-3.7,3.2-2.9,5.5.7,2.3,3.2,3.7,5.5,2.9,2.3-.7,3.7-3.2,2.9-5.5-.7-2.3-3.2-3.7-5.5-2.9Z"/>
  <path class="st0" d="M213.8,200.3c-2.3.7-3.7,3.2-2.9,5.5.7,2.3,3.2,3.7,5.5,2.9,2.3-.7,3.7-3.2,2.9-5.5-.7-2.3-3.2-3.7-5.5-2.9Z"/>
  <path class="st0" d="M213.4,214.4c-.7-2.3-3.2-3.7-5.5-2.9-2.3.7-3.7,3.2-2.9,5.5.7,2.3,3.2,3.7,5.5,2.9,2.3-.7,3.7-3.2,2.9-5.5Z"/>
  <path class="st0" d="M204.6,231c2.3-.7,3.7-3.2,2.9-5.5-.7-2.3-3.2-3.7-5.5-2.9-2.3.7-3.7,3.2-2.9,5.5.7,2.3,3.2,3.7,5.5,2.9Z"/>
  <path class="st0" d="M198.7,242.1c2.3-.7,3.7-3.2,2.9-5.5-.7-2.3-3.2-3.7-5.5-2.9-.9.3-1.7.8-2.2,1.6l3.6,7.1c.4,0,.9,0,1.3-.2Z"/>
  <path class="st0" d="M186.9,264.3c2.1-.6,3.3-2.7,3.1-4.7h-.2c-2.7.5-5.7.8-8.6,1.1,0,.2,0,.5.2.7.7,2.3,3.2,3.7,5.5,2.9Z"/>
  <path class="st0" d="M178.4,266.9c-2.3.7-3.7,3.2-2.9,5.5.5,1.5,1.6,2.6,3,3,.5-.8,1-1.5,1.6-1.9.5-.4,1-.6,1.6-.7l2.4-.6c.2-.7.2-1.5,0-2.3-.7-2.3-3.2-3.7-5.5-2.9Z"/>
  <path class="st0" d="M172.5,278c-2.3.7-3.7,3.2-2.9,5.5.6,2.1,2.7,3.4,4.9,3.1.1-.5.3-.9.4-1.4.4-1.5,1.1-4,2-6.3-1.1-1-2.7-1.4-4.3-1Z"/>
  <path class="st0" d="M163.6,294.6c.7,2.3,3.2,3.7,5.5,2.9,2.3-.7,3.7-3.2,2.9-5.5-.7-2.3-3.2-3.7-5.5-2.9-2.3.7-3.7,3.2-2.9,5.5Z"/>
  <path class="st0" d="M157.7,305.7c.7,2.3,3.2,3.7,5.5,2.9,2.3-.7,3.7-3.2,2.9-5.5-.7-2.3-3.2-3.7-5.5-2.9-2.3.7-3.7,3.2-2.9,5.5Z"/>
  <path class="st0" d="M154.8,311.2c-2.3.7-3.7,3.2-2.9,5.5.7,2.3,3.2,3.7,5.5,2.9,2.3-.7,3.7-3.2,2.9-5.5-.7-2.3-3.2-3.7-5.5-2.9Z"/>
  <path class="st0" d="M148.9,322.3c-2.3.7-3.7,3.2-2.9,5.5.7,2.3,3.2,3.7,5.5,2.9,2.3-.7,3.7-3.2,2.9-5.5-.7-2.3-3.2-3.7-5.5-2.9Z"/>
  <path class="st0" d="M143,333.4c-2.3.7-3.7,3.2-2.9,5.5.7,2.3,3.2,3.7,5.5,2.9,2.3-.7,3.7-3.2,2.9-5.5-.7-2.3-3.2-3.7-5.5-2.9Z"/>
  <path class="st0" d="M142.7,347.4c-.6-2-2.4-3.2-4.4-3.1,0,2.1,0,4.3.1,6.4,0,.4,0,.8,0,1.2v1.2c.5,0,.9,0,1.3-.2,2.3-.7,3.7-3.2,2.9-5.5Z"/>
  <path class="st0" d="M280.6,115.1c2.5-.8,3.8-3.4,3.1-5.8-.2-.5-.4-1-.7-1.4l-8.4,2.6c0,.5,0,1,.2,1.5.8,2.5,3.4,3.8,5.8,3.1Z"/>
  <path class="st0" d="M274.7,126.2c2.5-.8,3.8-3.4,3.1-5.8-.8-2.5-3.4-3.8-5.8-3.1-2.5.8-3.8,3.4-3.1,5.8.8,2.5,3.4,3.8,5.8,3.1Z"/>
  <path class="st0" d="M263,134.2c.8,2.5,3.4,3.8,5.8,3.1,2.5-.8,3.8-3.4,3.1-5.8-.8-2.5-3.4-3.8-5.8-3.1-2.5.8-3.8,3.4-3.1,5.8Z"/>
  <path class="st0" d="M260.2,139.5c-2.5.8-3.8,3.4-3.1,5.8.8,2.5,3.4,3.8,5.8,3.1,2.5-.8,3.8-3.4,3.1-5.8-.8-2.5-3.4-3.8-5.8-3.1Z"/>
  <path class="st0" d="M254.3,150.6c-2.5.8-3.8,3.4-3.1,5.8.8,2.5,3.4,3.8,5.8,3.1,2.5-.8,3.8-3.4,3.1-5.8-.8-2.5-3.4-3.8-5.8-3.1Z"/>
  <path class="st0" d="M248.4,161.7c-2.5.8-3.8,3.4-3.1,5.8.8,2.5,3.4,3.8,5.8,3.1,2.5-.8,3.8-3.4,3.1-5.8-.8-2.5-3.4-3.8-5.8-3.1Z"/>
  <path class="st0" d="M242.5,172.7c-2.5.8-3.8,3.4-3.1,5.8.8,2.5,3.4,3.8,5.8,3.1,2.5-.8,3.8-3.4,3.1-5.8-.8-2.5-3.4-3.8-5.8-3.1Z"/>
  <path class="st0" d="M236.6,183.8c-2.5.8-3.8,3.4-3.1,5.8.8,2.5,3.4,3.8,5.8,3.1,2.5-.8,3.8-3.4,3.1-5.8-.8-2.5-3.4-3.8-5.8-3.1Z"/>
  <path class="st0" d="M230.7,194.9c-2.5.8-3.8,3.4-3.1,5.8.8,2.5,3.4,3.8,5.8,3.1,2.5-.8,3.8-3.4,3.1-5.8-.8-2.5-3.4-3.8-5.8-3.1Z"/>
  <path class="st0" d="M224.8,206c-2.5.8-3.8,3.4-3.1,5.8.8,2.5,3.4,3.8,5.8,3.1,2.5-.8,3.8-3.4,3.1-5.8-.8-2.5-3.4-3.8-5.8-3.1Z"/>
  <path class="st0" d="M218.9,217.1c-2.5.8-3.8,3.4-3.1,5.8.8,2.5,3.4,3.8,5.8,3.1,2.5-.8,3.8-3.4,3.1-5.8-.8-2.5-3.4-3.8-5.8-3.1Z"/>
  <path class="st0" d="M215.7,237.1c2.5-.8,3.8-3.4,3.1-5.8-.8-2.5-3.4-3.8-5.8-3.1-2.5.8-3.8,3.4-3.1,5.8.8,2.5,3.4,3.8,5.8,3.1Z"/>
  <path class="st0" d="M209.8,248.2c2.5-.8,3.8-3.4,3.1-5.8-.8-2.5-3.4-3.8-5.8-3.1-2.5.8-3.8,3.4-3.1,5.8.8,2.5,3.4,3.8,5.8,3.1Z"/>
  <path class="st0" d="M203.9,259.3c2.5-.8,3.8-3.4,3.1-5.8-.7-2.4-3.2-3.8-5.6-3.1l.2.4c.6,1.3.7,2.7,0,4-.6,1.3-1.6,2.2-3,2.6h0c1.1,1.8,3.3,2.7,5.3,2Z"/>
  <path class="st0" d="M195.3,261.5c-2.5.8-3.8,3.4-3.1,5.8.3.9.8,1.7,1.5,2.2,2.5-.7,4.9-1.4,7.4-2.1.3-.9.3-1.9,0-2.8-.8-2.5-3.4-3.8-5.8-3.1Z"/>
  <path class="st0" d="M168.6,311.6c.5,1.6,1.7,2.7,3.2,3.1-.1-1.4-.2-2.9-.3-4.3,0,0,0,0,0,0,0-1.5,0-3,0-4.5-2.3.8-3.6,3.4-2.9,5.7Z"/>
  <path class="st0" d="M162.7,322.7c.8,2.5,3.4,3.8,5.8,3.1,2.5-.8,3.8-3.4,3.1-5.8-.8-2.5-3.4-3.8-5.8-3.1-2.5.8-3.8,3.4-3.1,5.8Z"/>
  <path class="st0" d="M159.9,328c-2.5.8-3.8,3.4-3.1,5.8.8,2.5,3.4,3.8,5.8,3.1,2.5-.8,3.8-3.4,3.1-5.8-.8-2.5-3.4-3.8-5.8-3.1Z"/>
  <path class="st0" d="M154,339.1c-2.5.8-3.8,3.4-3.1,5.8.8,2.5,3.4,3.8,5.8,3.1,2.5-.8,3.8-3.4,3.1-5.8-.8-2.5-3.4-3.8-5.8-3.1Z"/>
  <path class="st0" d="M150.9,359.1c2.5-.8,3.8-3.4,3.1-5.8-.8-2.5-3.4-3.8-5.8-3.1-2.5.8-3.8,3.4-3.1,5.8.8,2.5,3.4,3.8,5.8,3.1Z"/>
  <path class="st0" d="M145,370.2c2.5-.8,3.8-3.4,3.1-5.8-.8-2.5-3.4-3.8-5.8-3.1-1.3.4-2.3,1.4-2.9,2.5.2,1.6.3,3.2.5,4.8,1.1,1.5,3.1,2.2,5.1,1.6Z"/>
  <path class="st0" d="M140.5,373.1c.3,2.1.6,4.3,1,6.4.8-1.1,1.1-2.6.7-4.1-.3-1-.9-1.8-1.7-2.4Z"/>
  <path class="st0" d="M297.6,110.1c2.6-.8,4-3.5,3.2-6.1-.2-.5-.4-1-.7-1.5l-8.8,2.7c0,.5,0,1.1.2,1.6.8,2.6,3.5,4,6.1,3.2Z"/>
  <path class="st0" d="M291.7,121.2c2.6-.8,4-3.5,3.2-6.1-.8-2.6-3.5-4-6.1-3.2-2.6.8-4,3.5-3.2,6.1.8,2.6,3.5,4,6.1,3.2Z"/>
  <path class="st0" d="M279.7,129.1c.8,2.6,3.5,4,6.1,3.2,2.6-.8,4-3.5,3.2-6.1-.8-2.6-3.5-4-6.1-3.2-2.6.8-4,3.5-3.2,6.1Z"/>
  <path class="st0" d="M277.1,134.1c-2.6.8-4,3.5-3.2,6.1.8,2.6,3.5,4,6.1,3.2,2.6-.8,4-3.5,3.2-6.1-.8-2.6-3.5-4-6.1-3.2Z"/>
  <path class="st0" d="M271.2,145.2c-2.6.8-4,3.5-3.2,6.1.8,2.6,3.5,4,6.1,3.2.1,0,.2,0,.4-.1.7-.6,1.4-1.2,2.2-1.7.8-1.2,1.1-2.7.7-4.2-.8-2.6-3.5-4-6.1-3.2Z"/>
  <path class="st0" d="M265.3,156.2c-2.6.8-4,3.5-3.2,6.1.8,2.6,3.5,4,6.1,3.2.3,0,.5-.2.7-.3,0-.6,0-1.1.2-1.7.3-1.9.9-3.6,1.9-5.2-1.1-1.9-3.4-2.9-5.6-2.2Z"/>
  <path class="st0" d="M259.4,167.3c-2.6.8-4,3.5-3.2,6.1.8,2.6,3.5,4,6.1,3.2,2.6-.8,4-3.5,3.2-6.1-.8-2.6-3.5-4-6.1-3.2Z"/>
  <path class="st0" d="M253.5,178.4c-2.6.8-4,3.5-3.2,6.1.8,2.6,3.5,4,6.1,3.2,2.6-.8,4-3.5,3.2-6.1-.8-2.6-3.5-4-6.1-3.2Z"/>
  <path class="st0" d="M247.6,189.5c-2.6.8-4,3.5-3.2,6.1.8,2.6,3.5,4,6.1,3.2,2.6-.8,4-3.5,3.2-6.1-.8-2.6-3.5-4-6.1-3.2Z"/>
  <path class="st0" d="M241.7,200.6c-2.6.8-4,3.5-3.2,6.1.8,2.6,3.5,4,6.1,3.2,2.6-.8,4-3.5,3.2-6.1-.8-2.6-3.5-4-6.1-3.2Z"/>
  <path class="st0" d="M235.8,211.7c-2.6.8-4,3.5-3.2,6.1.8,2.6,3.5,4,6.1,3.2,2.6-.8,4-3.5,3.2-6.1-.8-2.6-3.5-4-6.1-3.2Z"/>
  <path class="st0" d="M229.9,222.8c-2.6.8-4,3.5-3.2,6.1.8,2.6,3.5,4,6.1,3.2,2.6-.8,4-3.5,3.2-6.1-.8-2.6-3.5-4-6.1-3.2Z"/>
  <path class="st0" d="M224,233.9c-2.6.8-4,3.5-3.2,6.1.8,2.6,3.5,4,6.1,3.2,2.6-.8,4-3.5,3.2-6.1-.8-2.6-3.5-4-6.1-3.2Z"/>
  <path class="st0" d="M221,254.3c2.6-.8,4-3.5,3.2-6.1-.8-2.6-3.5-4-6.1-3.2-2.6.8-4,3.5-3.2,6.1.8,2.6,3.5,4,6.1,3.2Z"/>
  <path class="st0" d="M215.1,265.4c2.6-.8,4-3.5,3.2-6.1-.8-2.6-3.5-4-6.1-3.2-2.6.8-4,3.5-3.2,6.1.8,2.6,3.5,4,6.1,3.2Z"/>
  <path class="st0" d="M211.1,268.4l1.5,3c0-.3,0-.6-.2-.9-.3-.9-.7-1.6-1.3-2.2h0Z"/>
  <path class="st0" d="M173.6,325.8c-.3.9-.3,1.9,0,2.9.3.9.7,1.6,1.4,2.2-.5-1.7-1-3.4-1.4-5.1Z"/>
  <path class="st0" d="M171,333.7c-2.6.8-4,3.5-3.2,6.1.8,2.6,3.5,4,6.1,3.2,2.6-.8,4-3.5,3.2-6.1-.8-2.6-3.5-4-6.1-3.2Z"/>
  <path class="st0" d="M165.1,344.8c-2.6.8-4,3.5-3.2,6.1.8,2.6,3.5,4,6.1,3.2,2.6-.8,4-3.5,3.2-6.1-.8-2.6-3.5-4-6.1-3.2Z"/>
  <path class="st0" d="M159.2,355.9c-2.6.8-4,3.5-3.2,6.1.8,2.6,3.5,4,6.1,3.2,2.6-.8,4-3.5,3.2-6.1-.8-2.6-3.5-4-6.1-3.2Z"/>
  <path class="st0" d="M150,373.1c.8,2.6,3.5,4,6.1,3.2,2.6-.8,4-3.5,3.2-6.1-.8-2.6-3.5-4-6.1-3.2-2.6.8-4,3.5-3.2,6.1Z"/>
  <path class="st0" d="M144.1,384.1c.8,2.6,3.5,4,6.1,3.2,2.6-.8,4-3.5,3.2-6.1-.8-2.6-3.5-4-6.1-3.2-2.6.8-4,3.5-3.2,6.1Z"/>
  <path class="st0" d="M147.6,392.4c-.6-2-2.4-3.3-4.4-3.4.5,2.8,1.1,5.6,1.7,8.3v.3c.1.2.2.4.2.6,2.1-1.1,3.1-3.5,2.4-5.8Z"/>
  <path class="st0" d="M314.7,105.1c2.7-.8,4.2-3.7,3.4-6.4-.2-.6-.5-1.1-.8-1.6l-9.2,2.9c0,.6,0,1.1.2,1.7.8,2.7,3.7,4.2,6.4,3.4Z"/>
  <path class="st0" d="M308.8,116.2c2.7-.8,4.2-3.7,3.4-6.4-.8-2.7-3.7-4.2-6.4-3.4-2.7.8-4.2,3.7-3.4,6.4.8,2.7,3.7,4.2,6.4,3.4Z"/>
  <path class="st0" d="M299.9,117.6c-2.7.8-4.2,3.7-3.4,6.4.8,2.7,3.7,4.2,6.4,3.4,2.7-.8,4.2-3.7,3.4-6.4-.8-2.7-3.7-4.2-6.4-3.4Z"/>
  <path class="st0" d="M294,128.7c-2.7.8-4.2,3.7-3.4,6.4.8,2.7,3.7,4.2,6.4,3.4,2.7-.8,4.2-3.7,3.4-6.4-.8-2.7-3.7-4.2-6.4-3.4Z"/>
  <path class="st0" d="M288.1,139.8c-2.7.8-4.2,3.7-3.4,6.4.2.8.6,1.5,1.2,2,2.8-1.1,5.8-2.1,8.7-2.6.1-.8.1-1.6-.1-2.4-.8-2.7-3.7-4.2-6.4-3.4Z"/>
  <path class="st0" d="M269.9,173.2c-2.4,1-3.7,3.7-2.9,6.2.8,2.7,3.7,4.2,6.4,3.4.1,0,.3,0,.4-.1-1-2.4-2-4.8-3-7.2-.3-.7-.6-1.5-.8-2.3Z"/>
  <path class="st0" d="M264.5,184.1c-2.7.8-4.2,3.7-3.4,6.4.8,2.7,3.7,4.2,6.4,3.4,2.7-.8,4.2-3.7,3.4-6.4-.8-2.7-3.7-4.2-6.4-3.4Z"/>
  <path class="st0" d="M258.6,195.2c-2.7.8-4.2,3.7-3.4,6.4.8,2.7,3.7,4.2,6.4,3.4,2.7-.8,4.2-3.7,3.4-6.4-.8-2.7-3.7-4.2-6.4-3.4Z"/>
  <path class="st0" d="M252.7,206.3c-2.7.8-4.2,3.7-3.4,6.4.8,2.7,3.7,4.2,6.4,3.4,2.7-.8,4.2-3.7,3.4-6.4-.8-2.7-3.7-4.2-6.4-3.4Z"/>
  <path class="st0" d="M246.8,217.4c-2.7.8-4.2,3.7-3.4,6.4.8,2.7,3.7,4.2,6.4,3.4,2.7-.8,4.2-3.7,3.4-6.4-.8-2.7-3.7-4.2-6.4-3.4Z"/>
  <path class="st0" d="M243.9,238.2c2.7-.8,4.2-3.7,3.4-6.4-.8-2.7-3.7-4.2-6.4-3.4-2.7.8-4.2,3.7-3.4,6.4.8,2.7,3.7,4.2,6.4,3.4Z"/>
  <path class="st0" d="M235,239.6c-2.7.8-4.2,3.7-3.4,6.4.8,2.7,3.7,4.2,6.4,3.4,2.7-.8,4.2-3.7,3.4-6.4-.8-2.7-3.7-4.2-6.4-3.4Z"/>
  <path class="st0" d="M232.1,260.4c2.7-.8,4.2-3.7,3.4-6.4-.8-2.7-3.7-4.2-6.4-3.4-2.7.8-4.2,3.7-3.4,6.4.8,2.7,3.7,4.2,6.4,3.4Z"/>
  <path class="st0" d="M226.2,271.5c2.7-.8,4.2-3.7,3.4-6.4-.8-2.7-3.7-4.2-6.4-3.4-2.7.8-4.2,3.7-3.4,6.4.8,2.7,3.7,4.2,6.4,3.4Z"/>
  <path class="st0" d="M220.3,282.6c2.7-.8,4.2-3.7,3.4-6.4-.8-2.7-3.7-4.2-6.4-3.4-1.3.4-2.2,1.2-2.9,2.2l3.8,7.7c.7,0,1.3,0,2-.2Z"/>
  <path class="st0" d="M183.4,349.3c-1.1-1.8-2.1-3.6-3-5.4-.4-.8-.8-1.6-1.2-2.4-.7,1.2-1,2.7-.5,4.2.7,2.2,2.6,3.6,4.8,3.6Z"/>
  <path class="st0" d="M176.1,350.5c-2.7.8-4.2,3.7-3.4,6.4.8,2.7,3.7,4.2,6.4,3.4,2.7-.8,4.2-3.7,3.4-6.4-.8-2.7-3.7-4.2-6.4-3.4Z"/>
  <path class="st0" d="M166.8,367.9c.8,2.7,3.7,4.2,6.4,3.4,2.7-.8,4.2-3.7,3.4-6.4-.8-2.7-3.7-4.2-6.4-3.4-2.7.8-4.2,3.7-3.4,6.4Z"/>
  <path class="st0" d="M167.3,382.4c2.7-.8,4.2-3.7,3.4-6.4-.8-2.7-3.7-4.2-6.4-3.4-2.7.8-4.2,3.7-3.4,6.4.8,2.7,3.7,4.2,6.4,3.4Z"/>
  <path class="st0" d="M161.4,393.5c2.7-.8,4.2-3.7,3.4-6.4-.8-2.7-3.7-4.2-6.4-3.4-2.7.8-4.2,3.7-3.4,6.4.8,2.7,3.7,4.2,6.4,3.4Z"/>
  <path class="st0" d="M155.5,404.6c2.7-.8,4.2-3.7,3.4-6.4-.8-2.7-3.7-4.2-6.4-3.4-2.7.8-4.2,3.7-3.4,6.4.8,2.7,3.7,4.2,6.4,3.4Z"/>
  <path class="st0" d="M153,409.3c-.8-2.6-3.5-4.1-6.1-3.5.5,1.9.9,3.7,1.4,5.6l.2.6c0,.2.1.5.2.7.3,1,.5,2,.8,3h.2c2.7-.9,4.2-3.7,3.4-6.4Z"/>
  <path class="st0" d="M331.7,100.2c2.8-.9,4.4-3.8,3.5-6.6-.2-.6-.5-1.2-.9-1.7l-9.5,3c0,.6,0,1.2.2,1.8.9,2.8,3.8,4.4,6.6,3.5Z"/>
  <path class="st0" d="M325.8,111.2c2.8-.9,4.4-3.8,3.5-6.6-.9-2.8-3.8-4.4-6.6-3.5-2.8.9-4.4,3.8-3.5,6.6.9,2.8,3.8,4.4,6.6,3.5Z"/>
  <path class="st0" d="M316.8,112.2c-2.8.9-4.4,3.8-3.5,6.6.9,2.8,3.8,4.4,6.6,3.5,2.8-.9,4.4-3.8,3.5-6.6-.9-2.8-3.8-4.4-6.6-3.5Z"/>
  <path class="st0" d="M310.9,123.3c-2.8.9-4.4,3.8-3.5,6.6.9,2.8,3.8,4.4,6.6,3.5,2.8-.9,4.4-3.8,3.5-6.6-.9-2.8-3.8-4.4-6.6-3.5Z"/>
  <path class="st0" d="M305,134.3c-2.8.9-4.4,3.8-3.5,6.6.9,2.8,3.8,4.4,6.6,3.5,2.8-.9,4.4-3.8,3.5-6.6-.9-2.8-3.8-4.4-6.6-3.5Z"/>
  <path class="st0" d="M275.6,189.8c-2.8.9-4.4,3.8-3.5,6.6.9,2.8,3.8,4.4,6.6,3.5.7-.2,1.4-.6,2-1.1l-3.9-9.3c-.4,0-.8.1-1.1.2Z"/>
  <path class="st0" d="M272.8,211.1c2.8-.9,4.4-3.8,3.5-6.6-.9-2.8-3.8-4.4-6.6-3.5-2.8.9-4.4,3.8-3.5,6.6.9,2.8,3.8,4.4,6.6,3.5Z"/>
  <path class="st0" d="M263.8,212c-2.8.9-4.4,3.8-3.5,6.6.9,2.8,3.8,4.4,6.6,3.5,2.8-.9,4.4-3.8,3.5-6.6-.9-2.8-3.8-4.4-6.6-3.5Z"/>
  <path class="st0" d="M261,233.2c2.8-.9,4.4-3.8,3.5-6.6-.9-2.8-3.8-4.4-6.6-3.5-2.8.9-4.4,3.8-3.5,6.6.9,2.8,3.8,4.4,6.6,3.5Z"/>
  <path class="st0" d="M255.1,244.3c2.8-.9,4.4-3.8,3.5-6.6-.9-2.8-3.8-4.4-6.6-3.5-2.8.9-4.4,3.8-3.5,6.6.9,2.8,3.8,4.4,6.6,3.5Z"/>
  <path class="st0" d="M249.2,255.4c2.8-.9,4.4-3.8,3.5-6.6-.9-2.8-3.8-4.4-6.6-3.5-2.8.9-4.4,3.8-3.5,6.6.9,2.8,3.8,4.4,6.6,3.5Z"/>
  <path class="st0" d="M243.3,266.5c2.8-.9,4.4-3.8,3.5-6.6-.9-2.8-3.8-4.4-6.6-3.5-2.8.9-4.4,3.8-3.5,6.6.9,2.8,3.8,4.4,6.6,3.5Z"/>
  <path class="st0" d="M237.4,277.6c2.8-.9,4.4-3.8,3.5-6.6-.9-2.8-3.8-4.4-6.6-3.5-2.8.9-4.4,3.8-3.5,6.6.9,2.8,3.8,4.4,6.6,3.5Z"/>
  <path class="st0" d="M231.5,288.7c2.8-.9,4.4-3.8,3.5-6.6-.9-2.8-3.8-4.4-6.6-3.5-2.8.9-4.4,3.8-3.5,6.6.9,2.8,3.8,4.4,6.6,3.5Z"/>
  <path class="st0" d="M226.6,299.4c2.2-1.2,3.3-3.8,2.5-6.2-.9-2.8-3.8-4.4-6.6-3.5-.2,0-.4.1-.6.2l2.8,5.6,1.9,3.9Z"/>
  <path class="st0" d="M190.2,366.3c2.1-.6,3.5-2.4,3.7-4.5-2.1-1.7-4.1-3.7-5.9-5.9-.3,0-.6.1-.9.2-2.8.9-4.4,3.8-3.5,6.6.9,2.8,3.8,4.4,6.6,3.5Z"/>
  <path class="st0" d="M181.2,367.2c-2.8.9-4.4,3.8-3.5,6.6.9,2.8,3.8,4.4,6.6,3.5,2.8-.9,4.4-3.8,3.5-6.6-.9-2.8-3.8-4.4-6.6-3.5Z"/>
  <path class="st0" d="M178.4,388.5c2.8-.9,4.4-3.8,3.5-6.6-.9-2.8-3.8-4.4-6.6-3.5-2.8.9-4.4,3.8-3.5,6.6.9,2.8,3.8,4.4,6.6,3.5Z"/>
  <path class="st0" d="M172.5,399.6c2.8-.9,4.4-3.8,3.5-6.6-.9-2.8-3.8-4.4-6.6-3.5-2.8.9-4.4,3.8-3.5,6.6.9,2.8,3.8,4.4,6.6,3.5Z"/>
  <path class="st0" d="M166.6,410.7c2.8-.9,4.4-3.8,3.5-6.6-.9-2.8-3.8-4.4-6.6-3.5-2.8.9-4.4,3.8-3.5,6.6.9,2.8,3.8,4.4,6.6,3.5Z"/>
  <path class="st0" d="M160.7,421.8c2.8-.9,4.4-3.8,3.5-6.6-.9-2.8-3.8-4.4-6.6-3.5-2.8.9-4.4,3.8-3.5,6.6.9,2.8,3.8,4.4,6.6,3.5Z"/>
  <path class="st0" d="M158.4,426.2c-.9-2.8-3.8-4.4-6.6-3.5-.1,0-.3,0-.4.1,1,3.4,1.9,6.8,3,10.2.2,0,.4,0,.5-.1,2.8-.9,4.4-3.8,3.5-6.6Z"/>
  <path class="st0" d="M348.8,95.2c2.9-.9,4.6-4,3.7-6.9-.2-.7-.5-1.2-.9-1.8l-9.9,3.1c0,.6,0,1.3.2,1.9.9,2.9,4,4.6,6.9,3.7Z"/>
  <path class="st0" d="M342.9,106.3c2.9-.9,4.6-4,3.7-6.9-.9-2.9-4-4.6-6.9-3.7-2.9.9-4.6,4-3.7,6.9.9,2.9,4,4.6,6.9,3.7Z"/>
  <path class="st0" d="M333.8,106.8c-2.9.9-4.6,4-3.7,6.9.9,2.9,4,4.6,6.9,3.7,2.9-.9,4.6-4,3.7-6.9-.9-2.9-4-4.6-6.9-3.7Z"/>
  <path class="st0" d="M327.9,117.9c-2.9.9-4.6,4-3.7,6.9.9,2.9,4,4.6,6.9,3.7,2.9-.9,4.6-4,3.7-6.9-.9-2.9-4-4.6-6.9-3.7Z"/>
  <path class="st0" d="M322,128.9c-2.9.9-4.6,4-3.7,6.9.9,2.9,4,4.6,6.9,3.7,2.9-.9,4.6-4,3.7-6.9-.9-2.9-4-4.6-6.9-3.7Z"/>
  <path class="st0" d="M316.1,140c-2.9.9-4.6,4-3.7,6.9.9,2.9,4,4.6,6.9,3.7,2.9-.9,4.6-4,3.7-6.9-.9-2.9-4-4.6-6.9-3.7Z"/>
  <path class="st0" d="M283.9,217.2c1.7-.5,3-1.8,3.6-3.4-.6-.5-1.1-1.1-1.4-1.9l-2.2-5.4c-1-.3-2.1-.3-3.2,0-2.9.9-4.6,4-3.7,6.9.9,2.9,4,4.6,6.9,3.7Z"/>
  <path class="st0" d="M278,228.3c2.9-.9,4.6-4,3.7-6.9-.9-2.9-4-4.6-6.9-3.7-2.9.9-4.6,4-3.7,6.9.9,2.9,4,4.6,6.9,3.7Z"/>
  <path class="st0" d="M272.1,239.3c2.9-.9,4.6-4,3.7-6.9-.9-2.9-4-4.6-6.9-3.7-2.9.9-4.6,4-3.7,6.9.9,2.9,4,4.6,6.9,3.7Z"/>
  <path class="st0" d="M266.2,250.4c2.9-.9,4.6-4,3.7-6.9-.9-2.9-4-4.6-6.9-3.7-2.9.9-4.6,4-3.7,6.9.9,2.9,4,4.6,6.9,3.7Z"/>
  <path class="st0" d="M260.3,261.5c2.9-.9,4.6-4,3.7-6.9-.9-2.9-4-4.6-6.9-3.7-2.9.9-4.6,4-3.7,6.9.9,2.9,4,4.6,6.9,3.7Z"/>
  <path class="st0" d="M254.4,272.6c2.9-.9,4.6-4,3.7-6.9-.9-2.9-4-4.6-6.9-3.7-2.9.9-4.6,4-3.7,6.9.9,2.9,4,4.6,6.9,3.7Z"/>
  <path class="st0" d="M248.5,283.7c2.9-.9,4.6-4,3.7-6.9-.9-2.9-4-4.6-6.9-3.7-2.9.9-4.6,4-3.7,6.9.9,2.9,4,4.6,6.9,3.7Z"/>
  <path class="st0" d="M242.6,294.8c2.9-.9,4.6-4,3.7-6.9-.9-2.9-4-4.6-6.9-3.7-2.9.9-4.6,4-3.7,6.9.9,2.9,4,4.6,6.9,3.7Z"/>
  <path class="st0" d="M236.8,305.9c2.9-.9,4.6-4,3.7-6.9-.9-2.9-4-4.6-6.9-3.7-2.9.9-4.6,4-3.7,6.9.9,2.9,4,4.6,6.9,3.7Z"/>
  <path class="st0" d="M230,306.2l4.1,8.2c.7-1.3.9-2.8.4-4.3-.6-2.1-2.5-3.6-4.5-3.9Z"/>
  <path class="st0" d="M201.4,372.4c2.3-.7,3.7-2.7,3.9-4.9-3.5-.8-6.6-2.3-9.5-4.3-1.4,1.4-2,3.5-1.3,5.5.9,2.9,4,4.6,6.9,3.7Z"/>
  <path class="st0" d="M195.5,383.5c2.9-.9,4.6-4,3.7-6.9-.9-2.9-4-4.6-6.9-3.7-2.9.9-4.6,4-3.7,6.9.9,2.9,4,4.6,6.9,3.7Z"/>
  <path class="st0" d="M189.6,394.6c2.9-.9,4.6-4,3.7-6.9-.9-2.9-4-4.6-6.9-3.7-2.9.9-4.6,4-3.7,6.9.9,2.9,4,4.6,6.9,3.7Z"/>
  <path class="st0" d="M183.7,405.7c2.9-.9,4.6-4,3.7-6.9-.9-2.9-4-4.6-6.9-3.7-2.9.9-4.6,4-3.7,6.9.9,2.9,4,4.6,6.9,3.7Z"/>
  <path class="st0" d="M177.8,416.8c2.9-.9,4.6-4,3.7-6.9-.9-2.9-4-4.6-6.9-3.7-2.9.9-4.6,4-3.7,6.9.9,2.9,4,4.6,6.9,3.7Z"/>
  <path class="st0" d="M171.9,427.9c2.9-.9,4.6-4,3.7-6.9-.9-2.9-4-4.6-6.9-3.7-2.9.9-4.6,4-3.7,6.9.9,2.9,4,4.6,6.9,3.7Z"/>
  <path class="st0" d="M166,439c2.9-.9,4.6-4,3.7-6.9-.9-2.9-4-4.6-6.9-3.7-2.9.9-4.6,4-3.7,6.9.9,2.9,4,4.6,6.9,3.7Z"/>
  <path class="st0" d="M163.8,443.1c-.9-2.9-4-4.6-6.9-3.7-.2,0-.3.1-.5.2,1.1,3.5,2.3,7,3.4,10.5,0,0,.2,0,.3,0,2.9-.9,4.6-4,3.7-6.9Z"/>
  <path class="st0" d="M365.8,90.2c3-.9,4.7-4.1,3.8-7.2-.2-.7-.5-1.3-1-1.9l-10.3,3.2c0,.7,0,1.3.2,2,.9,3,4.1,4.7,7.2,3.8Z"/>
  <path class="st0" d="M352.8,97.5c.9,3,4.1,4.7,7.2,3.8,3-.9,4.7-4.1,3.8-7.2-.9-3-4.1-4.8-7.2-3.8-3,.9-4.7,4.1-3.8,7.2Z"/>
  <path class="st0" d="M350.7,101.4c-3,.9-4.7,4.1-3.8,7.2.9,3,4.1,4.7,7.2,3.8,3-.9,4.7-4.1,3.8-7.2-.9-3-4.1-4.7-7.2-3.8Z"/>
  <path class="st0" d="M344.8,112.5c-3,.9-4.8,4.1-3.8,7.2.9,3,4.1,4.8,7.2,3.8,3-.9,4.7-4.1,3.8-7.2-.9-3-4.1-4.7-7.2-3.8Z"/>
  <path class="st0" d="M342.2,134.5c3-.9,4.7-4.1,3.8-7.2-.9-3-4.1-4.7-7.2-3.8-3,.9-4.8,4.1-3.8,7.2.9,3,4.1,4.7,7.2,3.8Z"/>
  <path class="st0" d="M333,134.6c-3,.9-4.7,4.1-3.8,7.2.9,3,4.1,4.7,7.2,3.8,3-.9,4.7-4.1,3.8-7.2-.9-3-4.1-4.7-7.2-3.8Z"/>
  <path class="st0" d="M327.1,145.7c-3,.9-4.7,4.1-3.8,7.2.9,3,4.1,4.7,7.2,3.8,3-.9,4.7-4.1,3.8-7.2-.9-3-4.1-4.7-7.2-3.8Z"/>
  <path class="st0" d="M321.8,168c.9.2,1.8.1,2.8-.1,3-.9,4.7-4.1,3.8-7.2-.9-3-4.1-4.7-7.2-3.8-.8.2-1.5.7-2.1,1.2.2.3.3.7.4,1,1.2,3,2,6,2.3,8.9Z"/>
  <path class="st0" d="M322.5,171.7c-.1-.4-.3-.8-.5-1.2,0,2.1,0,4.3-.4,6.4,1.1-1.4,1.5-3.3.9-5.2Z"/>
  <path class="st0" d="M301,212.2c3-.9,4.7-4.1,3.8-7.2-1.4,1.3-2.9,2.6-4.3,3.8-.1.1-.2.2-.4.3-1.3.9-2.5,1.7-3.8,2.6,1.3.8,3,1,4.6.5Z"/>
  <path class="st0" d="M298.9,216.1c-.6-1.8-1.9-3.1-3.5-3.7l-2.4,1.6c-1.2.8-2.6,1-3.9.6-.1,0-.3,0-.4-.1-1,1.4-1.3,3.2-.8,5,.9,3,4.1,4.8,7.2,3.8,3-.9,4.8-4.1,3.8-7.2Z"/>
  <path class="st0" d="M289.2,234.4c2-.6,3.4-2.2,3.9-4-.3-1-.3-2,0-2.9v-.3c-1-3-4.2-4.7-7.3-3.8-3,.9-4.7,4.1-3.8,7.2.9,3,4.1,4.7,7.2,3.8Z"/>
  <path class="st0" d="M283.3,245.4c3-.9,4.8-4.1,3.8-7.2-.9-3-4.1-4.7-7.2-3.8-3,.9-4.7,4.1-3.8,7.2.9,3,4.1,4.7,7.2,3.8Z"/>
  <path class="st0" d="M277.4,256.5c3-.9,4.7-4.1,3.8-7.2-.9-3-4.1-4.7-7.2-3.8-3,.9-4.7,4.1-3.8,7.2.9,3,4.1,4.7,7.2,3.8Z"/>
  <path class="st0" d="M271.5,267.6c3-.9,4.7-4.1,3.8-7.2-.9-3-4.1-4.7-7.2-3.8-3,.9-4.7,4.1-3.8,7.2.9,3,4.1,4.7,7.2,3.8Z"/>
  <path class="st0" d="M265.6,278.7c3-.9,4.8-4.1,3.8-7.2-.9-3-4.1-4.7-7.2-3.8-3,.9-4.7,4.1-3.8,7.2.9,3,4.1,4.7,7.2,3.8Z"/>
  <path class="st0" d="M259.7,289.8c3-.9,4.8-4.1,3.8-7.2-.9-3-4.1-4.7-7.2-3.8-3,.9-4.8,4.1-3.8,7.2.9,3,4.1,4.8,7.2,3.8Z"/>
  <path class="st0" d="M253.8,300.9c3-.9,4.7-4.1,3.8-7.2-.9-3-4.1-4.7-7.2-3.8-3,.9-4.7,4.1-3.8,7.2.9,3,4.1,4.8,7.2,3.8Z"/>
  <path class="st0" d="M247.9,312c3-.9,4.7-4.1,3.8-7.2-.9-3-4.1-4.7-7.2-3.8-3,.9-4.7,4.1-3.8,7.2.9,3,4.1,4.7,7.2,3.8Z"/>
  <path class="st0" d="M238.4,323c1.1.4,2.4.5,3.6,0,3-.9,4.8-4.1,3.8-7.2-.9-3-4.1-4.7-7.2-3.8-1.9.6-3.3,2-3.8,3.8l3.4,6.8.2.4Z"/>
  <path class="st0" d="M218.4,367.4c1.5-.5,2.7-1.5,3.4-2.8-2.1,1.3-4.3,2.2-6.7,2.8,1,.3,2.2.3,3.3,0Z"/>
  <path class="st0" d="M212.5,378.5c3-.9,4.8-4.1,3.8-7.2-.5-1.6-1.7-2.9-3.1-3.5-1.6.2-3.3.3-5.1.2-2.4,1.3-3.6,4.1-2.8,6.8.9,3,4.1,4.8,7.2,3.8Z"/>
  <path class="st0" d="M206.6,389.6c3-.9,4.7-4.1,3.8-7.2-.9-3-4.1-4.7-7.2-3.8-3,.9-4.7,4.1-3.8,7.2.9,3,4.1,4.7,7.2,3.8Z"/>
  <path class="st0" d="M200.7,400.7c3-.9,4.7-4.1,3.8-7.2-.9-3-4.1-4.7-7.2-3.8-3,.9-4.7,4.1-3.8,7.2.9,3,4.1,4.7,7.2,3.8Z"/>
  <path class="st0" d="M194.8,411.8c3-.9,4.7-4.1,3.8-7.2-.9-3-4.1-4.7-7.2-3.8-3,.9-4.7,4.1-3.8,7.2.9,3,4.1,4.7,7.2,3.8Z"/>
  <path class="st0" d="M188.9,422.9c3-.9,4.7-4.1,3.8-7.2-.9-3-4.1-4.7-7.2-3.8-3,.9-4.8,4.1-3.8,7.2.9,3,4.1,4.7,7.2,3.8Z"/>
  <path class="st0" d="M183.1,434c3-.9,4.7-4.1,3.8-7.2-.9-3-4.1-4.7-7.2-3.8-3,.9-4.7,4.1-3.8,7.2.9,3,4.1,4.7,7.2,3.8Z"/>
  <path class="st0" d="M177.2,445.1c3-.9,4.7-4.1,3.8-7.2-.9-3-4.1-4.7-7.2-3.8-3,.9-4.7,4.1-3.8,7.2.9,3,4.1,4.8,7.2,3.8Z"/>
  <path class="st0" d="M175.1,449c-.9-3-4.1-4.7-7.2-3.8-3,.9-4.7,4.1-3.8,7.2.9,3,4.1,4.7,7.2,3.8,3-.9,4.7-4.1,3.8-7.2Z"/>
  <path class="st0" d="M169.2,460.1c-.9-3-4.1-4.7-7.2-3.8h0s.1.3.1.3c0,.2.2.4.2.6v.3c1.2,3.2,2.4,6.4,3.6,9.6,2.7-1.1,4.2-4.1,3.3-7Z"/>
  <path class="st0" d="M382.9,85.2c3.2-1,4.9-4.3,4-7.5-.2-.7-.6-1.4-1-2l-10.6,3.3c0,.7,0,1.4.2,2.1,1,3.2,4.3,4.9,7.5,4Z"/>
  <path class="st0" d="M369.5,92.3c1,3.2,4.3,4.9,7.5,4,3.2-1,4.9-4.3,4-7.5-1-3.2-4.3-4.9-7.5-4-3.2,1-4.9,4.3-4,7.5Z"/>
  <path class="st0" d="M371.1,107.4c3.2-1,4.9-4.3,4-7.5-1-3.2-4.3-4.9-7.5-4-3.2,1-4.9,4.3-4,7.5,1,3.2,4.3,4.9,7.5,4Z"/>
  <path class="st0" d="M361.7,107c-3.2,1-4.9,4.3-4,7.5,1,3.2,4.3,4.9,7.5,4,3.2-1,4.9-4.3,4-7.5-1-3.2-4.3-4.9-7.5-4Z"/>
  <path class="st0" d="M359.3,129.6c3.2-1,4.9-4.3,4-7.5-1-3.2-4.3-4.9-7.5-4-3.2,1-4.9,4.3-4,7.5,1,3.2,4.3,4.9,7.5,4Z"/>
  <path class="st0" d="M353.4,140.7c3.2-1,4.9-4.3,4-7.5-1-3.2-4.3-4.9-7.5-4-3.2,1-4.9,4.3-4,7.5,1,3.2,4.3,4.9,7.5,4Z"/>
  <path class="st0" d="M347.5,151.7c3.2-1,4.9-4.3,4-7.5-1-3.2-4.3-4.9-7.5-4-3.2,1-4.9,4.3-4,7.5,1,3.2,4.3,4.9,7.5,4Z"/>
  <path class="st0" d="M341.6,162.8c3.2-1,4.9-4.3,4-7.5-1-3.2-4.3-4.9-7.5-4-3.2,1-4.9,4.3-4,7.5,1,3.2,4.3,4.9,7.5,4Z"/>
  <path class="st0" d="M335.7,173.9c3.2-1,4.9-4.3,4-7.5-1-3.2-4.3-4.9-7.5-4-3.2,1-4.9,4.3-4,7.5,1,3.2,4.3,4.9,7.5,4Z"/>
  <path class="st0" d="M329.8,185c3.2-1,4.9-4.3,4-7.5-1-3.2-4.3-4.9-7.5-4-3.2,1-4.9,4.3-4,7.5,1,3.2,4.3,4.9,7.5,4Z"/>
  <path class="st0" d="M323.9,196.1c3.2-1,4.9-4.3,4-7.5-1-3.2-4.3-4.9-7.5-4-.4.1-.9.3-1.2.5-.8,2-1.8,4-2.9,6,0,.3.1.6.2.9,1,3.2,4.3,4.9,7.5,4Z"/>
  <path class="st0" d="M322,199.7c-1-3.2-4.3-4.9-7.5-4-.7.2-1.4.6-1.9,1-.5.7-1.1,1.3-1.6,2-.7,1.3-.9,2.9-.4,4.5,1,3.2,4.3,4.9,7.5,4,3.2-1,4.9-4.3,4-7.5Z"/>
  <path class="st0" d="M308.3,216.3c.4-.3.8-.6,1.3-.9,2.1-1.4,4.2-2.9,6.4-4.3h.2c0-.1,0-.3,0-.3-1-3.2-4.3-4.9-7.5-4-3.2,1-4.9,4.3-4,7.5.4,1.3,1.1,2.3,2.1,3l1.5-1Z"/>
  <path class="st0" d="M301.4,220.9c1.5-1,3.1-2,4.6-3-1-.3-2.2-.3-3.2,0-2.3.7-3.8,2.6-4.2,4.8l1.9-1.2c.3-.2.6-.4.9-.6Z"/>
  <path class="st0" d="M297.3,240.6l-3.8-9c-.9,1.4-1.2,3.2-.7,4.9.7,2.2,2.4,3.7,4.5,4.1Z"/>
  <path class="st0" d="M294.4,251.6c3.2-1,4.9-4.3,4-7.5-1-3.2-4.3-4.9-7.5-4-3.2,1-4.9,4.3-4,7.5,1,3.2,4.3,4.9,7.5,4Z"/>
  <path class="st0" d="M288.5,262.6c3.2-1,4.9-4.3,4-7.5-1-3.2-4.3-4.9-7.5-4-3.2,1-4.9,4.3-4,7.5,1,3.2,4.3,4.9,7.5,4Z"/>
  <path class="st0" d="M282.6,273.7c3.2-1,4.9-4.3,4-7.5-1-3.2-4.3-4.9-7.5-4-3.2,1-4.9,4.3-4,7.5,1,3.2,4.3,4.9,7.5,4Z"/>
  <path class="st0" d="M276.8,284.8c3.2-1,4.9-4.3,4-7.5-1-3.2-4.3-4.9-7.5-4-3.2,1-4.9,4.3-4,7.5,1,3.2,4.3,4.9,7.5,4Z"/>
  <path class="st0" d="M270.9,295.9c3.2-1,4.9-4.3,4-7.5-1-3.2-4.3-4.9-7.5-4-3.2,1-4.9,4.3-4,7.5,1,3.2,4.3,4.9,7.5,4Z"/>
  <path class="st0" d="M265,307c3.2-1,4.9-4.3,4-7.5-1-3.2-4.3-4.9-7.5-4-3.2,1-4.9,4.3-4,7.5,1,3.2,4.3,4.9,7.5,4Z"/>
  <path class="st0" d="M259.1,318.1c3.2-1,4.9-4.3,4-7.5-1-3.2-4.3-4.9-7.5-4-3.2,1-4.9,4.3-4,7.5,1,3.2,4.3,4.9,7.5,4Z"/>
  <path class="st0" d="M253.2,329.2c3.2-1,4.9-4.3,4-7.5-1-3.2-4.3-4.9-7.5-4-3.2,1-4.9,4.3-4,7.5,1,3.2,4.3,4.9,7.5,4Z"/>
  <path class="st0" d="M247.3,340.3c3.2-1,4.9-4.3,4-7.5-1-3.2-4.3-4.9-7.5-4-.9.3-1.7.7-2.3,1.3v.3c.4,1.6.5,3.3.4,4.9,0,1.1-.3,2.3-.5,3.3,1.5,1.5,3.8,2.2,6,1.5Z"/>
  <path class="st0" d="M241.4,351.4c3.2-1,4.9-4.3,4-7.5-.6-2.1-2.3-3.6-4.3-4.1-.7,2.4-1.8,4.7-3.4,6.8l-2.3,3.1c1.5,1.6,3.9,2.3,6.1,1.6Z"/>
  <path class="st0" d="M239.4,355c-.7-2.3-2.7-3.9-5-4.2-1.7,2.2-3.4,4.5-5.1,6.7-.4.5-.8,1-1.2,1.5,1.2,2.8,4.3,4.4,7.3,3.4,3.2-1,4.9-4.3,4-7.5Z"/>
  <path class="st0" d="M229.6,373.5c3.2-1,4.9-4.3,4-7.5-1-3.2-4.3-4.9-7.5-4-3.2,1-4.9,4.3-4,7.5,1,3.2,4.3,4.9,7.5,4Z"/>
  <path class="st0" d="M223.7,384.6c3.2-1,4.9-4.3,4-7.5-1-3.2-4.3-4.9-7.5-4-3.2,1-4.9,4.3-4,7.5,1,3.2,4.3,4.9,7.5,4Z"/>
  <path class="st0" d="M217.8,395.7c3.2-1,4.9-4.3,4-7.5-1-3.2-4.3-4.9-7.5-4-3.2,1-4.9,4.3-4,7.5,1,3.2,4.3,4.9,7.5,4Z"/>
  <path class="st0" d="M211.9,406.8c3.2-1,4.9-4.3,4-7.5-1-3.2-4.3-4.9-7.5-4-3.2,1-4.9,4.3-4,7.5,1,3.2,4.3,4.9,7.5,4Z"/>
  <path class="st0" d="M210,410.5c-1-3.2-4.3-4.9-7.5-4-3.2,1-4.9,4.3-4,7.5,1,3.2,4.3,4.9,7.5,4,3.2-1,4.9-4.3,4-7.5Z"/>
  <path class="st0" d="M196.6,417.6c-3.2,1-4.9,4.3-4,7.5,1,3.2,4.3,4.9,7.5,4,.5-.2,1-.4,1.4-.6l2.3-2.7c.5-1.2.6-2.7.2-4.1-1-3.2-4.3-4.9-7.5-4Z"/>
  <path class="st0" d="M190.7,428.7c-3.2,1-4.9,4.3-4,7.5.7,2.2,2.5,3.7,4.6,4.1l6.7-7.9c-1.1-3-4.3-4.6-7.4-3.7Z"/>
  <path class="st0" d="M184.8,439.8c-3.2,1-4.9,4.3-4,7.5.4,1.2,1.1,2.2,2,2.9l7.8-9.1c-1.5-1.4-3.7-2-5.8-1.3Z"/>
  <path class="st0" d="M178.9,450.8c-3.2,1-4.9,4.3-4,7.5,0,.3.2.5.3.7l7.1-8.2c-1.1-.3-2.2-.3-3.4,0Z"/>
  <path class="st0" d="M168.9,466.4l3.7-4.4c-2,.7-3.3,2.4-3.7,4.4Z"/>
  <path class="st0" d="M380.4,98.3c.2.6.5,1.2.8,1.7v-.3c0,0,0,0,0,0,1-3,1.9-6,2.9-9-3,1.1-4.7,4.5-3.7,7.6Z"/>
  <path class="st0" d="M374.5,109.4c.4,1.4,1.3,2.6,2.5,3.3,1.3-3.8,2.5-7.6,3.7-11.3-.7,0-1.4,0-2.1.3-3.3,1-5.1,4.5-4.1,7.7Z"/>
  <path class="st0" d="M372.7,112.7c-3.3,1-5.1,4.5-4.1,7.7.6,2.1,2.3,3.6,4.3,4.2l.8-2.2c0-.2,0-.3.2-.4,1.1-3,2.1-6,3.1-9.1-1.3-.5-2.8-.6-4.2-.2Z"/>
  <path class="st0" d="M366.8,123.8c-3.3,1-5.1,4.5-4.1,7.7.8,2.7,3.3,4.4,6,4.4.6-1.6,1.2-3.2,1.8-4.7,0-.2.1-.4.2-.7.7-1.8,1.3-3.6,2-5.5-1.6-1.4-3.8-1.9-5.9-1.3Z"/>
  <path class="st0" d="M360.9,134.9c-3.3,1-5.1,4.5-4.1,7.7,1,3.2,4.4,5.1,7.6,4.1v-.2c.2-.3.3-.6.4-.9.6-1.5,1.2-3,1.8-4.6,0-.3.2-.7.4-1l1-2.5c-1.4-2.4-4.3-3.6-7.1-2.7Z"/>
  <path class="st0" d="M355,146c-3.3,1-5.1,4.5-4.1,7.7,1,3.3,4.5,5.1,7.7,4.1.5-.1.9-.3,1.3-.6,1-2.2,1.9-4.5,2.9-6.7,0-.1,0-.3-.1-.4-1-3.3-4.5-5.1-7.7-4.1Z"/>
  <path class="st0" d="M349.1,157.1c-3.3,1-5.1,4.5-4.1,7.7,1,3.3,4.5,5.1,7.7,4.1.9-.3,1.8-.8,2.4-1.4h0c0-.2,0-.2,0-.3.6-1.2,1.2-2.5,1.8-3.7,0-.8,0-1.5-.2-2.3-1-3.3-4.5-5.1-7.7-4.1Z"/>
  <path class="st0" d="M343.2,168.2c-3.3,1-5.1,4.5-4.1,7.7,1,3.3,4.5,5.1,7.7,4.1.8-.2,1.5-.6,2.1-1.1.7-1.2,1.5-2.5,2.2-3.8.2-.9,0-1.9-.2-2.8-1-3.3-4.5-5.1-7.7-4.1Z"/>
  <path class="st0" d="M337.3,179.3c-3.3,1-5.1,4.5-4.1,7.7.8,2.7,3.4,4.4,6.1,4.4.5-.5,1-1.1,1.5-1.7.1-.1.3-.3.4-.4,1.5-1.3,2.9-3.1,4.1-4.8,0-.4-.1-.8-.2-1.2-1-3.3-4.5-5.1-7.7-4.1Z"/>
  <path class="st0" d="M338.2,192.6c-1.5-2-4.2-3-6.8-2.2-3.3,1-5.1,4.5-4.1,7.7s4.5,5.1,7.7,4.1c.9-.3,1.7-.7,2.4-1.4-.5-.4-.8-.8-1.2-1.3-1.1-1.8-.8-4,.6-5.5.4-.5.9-1,1.4-1.5Z"/>
  <path class="st0" d="M304.6,257.9l-4.6-11c-2,1.5-2.9,4.2-2.1,6.7.9,2.9,3.8,4.7,6.7,4.3Z"/>
  <path class="st0" d="M244.8,371.9c-1-3.3-4.5-5.1-7.7-4.1-3.3,1-5.1,4.5-4.1,7.7,1,3.3,4.5,5.1,7.7,4.1,3.3-1,5.1-4.5,4.1-7.7Z"/>
  <path class="st0" d="M231.2,378.9c-3.3,1-5.1,4.5-4.1,7.7.9,2.8,3.6,4.6,6.4,4.4l5.7-6.7c0-.4-.1-.9-.3-1.3-1-3.3-4.5-5.1-7.7-4.1Z"/>
  <path class="st0" d="M225.3,390c-3.3,1-5.1,4.5-4.1,7.7.5,1.7,1.8,3.1,3.3,3.8l7.8-9.1c-1.5-2.2-4.3-3.3-6.9-2.4Z"/>
  <path class="st0" d="M219.4,401.1c-3.3,1-5.1,4.5-4.1,7.7.2.8.6,1.5,1.1,2.1l7.9-9.3c-1.4-.8-3.2-1.1-4.9-.6Z"/>
  <path class="st0" d="M209.3,419.3l6.3-7.4c-.7,0-1.4,0-2.1.3-3.1.9-4.9,4-4.3,7.1Z"/>
  <path class="st0" d="M243.6,379.2l5-5.8c-.1,0-.3,0-.4.1-2.6.8-4.3,3.1-4.5,5.7Z"/>
  <path class="st0" d="M473.6,326.4c-.7-1.2-1.3-2.4-2-3.6-.3-.5-.5-1-.8-1.4,0,0,0,0,0,0h0c0-.1,0-.2,0-.2h0l-.4-.8c0,0,0-.1,0-.2-1.2-2.1-2.3-4.1-3.5-6.2,0,0,0,0,0,0-.2-.4-.5-.9-.7-1.3,0,0,0,0,0,0-1-1.7-1.9-3.3-2.9-4.9,0-.1-.1-.2-.2-.4,0,0,0,0,0,0-.1-.2-.3-.4-.4-.7-.1-.2-.3-.4-.4-.6-.6-1-1.2-2-1.8-2.9,0,0,0-.1,0-.2-.4-.6-.8-1.3-1.2-1.9,0,0,0,0,0,0-.6-1-1.2-1.9-1.8-2.9h0s0,0,0,0c0,0,0,0,0-.1,0,0,0,0,0,0,0,0-.1-.2-.2-.3,0,0-.1-.2-.2-.3,0,0,0,0,0,0,0-.1-.2-.2-.2-.4-.9-1.4-1.7-2.7-2.6-4.1,0,0,0,0-.1,0-1.1-1.7-2.2-3.4-3.3-5.1,0,0,0,0,0,0-.5-.7-1-1.4-1.5-2.2-.5-.7-1-1.5-1.4-2.2,0,0,0,0,0,0-.9-1.4-1.9-2.8-2.8-4.2,0,0,0,0,.1.1-.9-1.4-1.9-2.7-2.8-4.1-.2-.2-.3-.5-.5-.7,0,0,0,0,0,0-.2-.2-.3-.5-.5-.7,0,0,0,0,0,0,0,0,0-.1-.1-.2,0,0-.1-.1-.2-.2,0,0,0,0,0,0-2.2-3.1-4.4-6.2-6.7-9.2,0,0,0,0,0,0l-.2-.3c-.8-1-1.6-2.1-2.3-3.1,0,0,0,0,0,0-1.7-2.3-3.5-4.5-5.3-6.7-.2-.2-.3-.3-.4-.5l-1.1-1.4c-.3.1-.6.3-.9.4,0-.3,0-.5-.2-.8-.1-.3-.3-.6-.4-.9.1,0,.3,0,.4,0-.3-.3-.6-.7-.9-1,0,0,0,0,0-.1l-1.1-1.3c0,0-.2,0-.2-.2-1.6-1.9-3.3-3.8-4.9-5.7,0,0,0,0,0,0-.3-.4-.7-.7-1-1-.3-.4-.6-.7-1-1.1,0,0,0,0,0,0-2.3-2.4-4.5-4.9-6.9-7.2-.2-.2-.4-.3-.5-.5-.4-.4-.9-.9-1.3-1.3,0,0,0,0,0,0-1-1-2-2-3.1-2.9-.5-.3-.9-.7-1.2-1.1-1-.9-1.9-1.7-2.9-2.6-.3-.2-.6-.5-.9-.7h0s-.1,0-.1,0c-.6.2-1.1.4-1.6.7,0-.5-.1-1.1-.3-1.6-.1-.4-.3-.9-.5-1.3,0,0-.1-.1-.2-.2,0,0-.2-.1-.3-.2,0,0,0,0,0,0l-1-.8c-.4-.2-.8-.5-1.2-.9-.6-.4-1.1-.9-1.7-1.3,0,0,0,0-.1,0h-.2c0-.2,0-.2,0-.2-.6-.5-1.2-1-1.9-1.4,0,0-.1,0-.2-.1-.3-.2-.6-.5-1-.7,0,.1,0,.2,0,.3.2.6.5,1.2.8,1.7-.6,0-1.3.1-1.9.3-.7.2-1.3.6-1.9,1,0-.6,0-1.3-.3-1.9-.2-.7-.6-1.4-1-2,.7,0,1.5,0,2.2-.3.1,0,.3,0,.4-.1-1.1-.7-2.2-1.4-3.4-2.1,0,0-.1,0-.2-.1-.9-.6-1.9-1.1-2.8-1.7-1-.6-2-1.1-3-1.6,0,.3.1.6.2.9.2.7.6,1.4,1,2-.7,0-1.5,0-2.2.3-.8.3-1.6.7-2.2,1.2,0-.8,0-1.5-.3-2.3-.3-.9-.7-1.6-1.2-2.3.8,0,1.7,0,2.6-.3.2,0,.4-.1.6-.2-2.1-1-4.3-1.8-6.5-2.5-.5,0-1-.2-1.5-.5l-.7-.2c.2.4.5.8.8,1.1-.8,0-1.7,0-2.6.3-1,.3-1.8.8-2.5,1.4.1-.9,0-1.8-.2-2.7-.2-.6-.4-1.2-.8-1.7-1.8-.5-3.6-.9-5.4-1.2-1.3-.2-2.6-.5-3.8-.7-.5.3-.9.7-1.2,1.2.1-.4.2-.9.3-1.3-2.1-.3-4.2-.6-6.2-.7-.3,0-.7,0-1,0-.7,0-1.7,0-2.2,0-1.2.3-2.4.1-3.4-.5-.1.9,0,1.9.2,2.8.4,1.3,1.1,2.3,2.1,3.1-1.2-.3-2.4-.4-3.7,0-1.6.5-2.9,1.6-3.7,2.9.7-1.4.8-3,.4-4.5-1-3.3-4.5-5.1-7.7-4.1-3.3,1-5.1,4.5-4.1,7.7.2.7.5,1.4,1,1.9,2.1.7,4.2,1.6,5.9,2.4.3,0,.6-.1.9-.2,1.6-.5,2.8-1.5,3.5-2.8-.7,1.4-.9,3.1-.4,4.7,0,.1,0,.2.1.3,2.5,1.2,4.9,2.6,7.3,4.1.2,0,.4,0,.6-.2,1.1-.3,2.1-1,2.8-1.8-.3,1.1-.3,2.3,0,3.5.1.4.2.7.4,1,1.4,1,2.7,2,4.1,3.1.5.4.9.7,1.4,1.1-.2-.3-.5-.5-.7-.7,1,.2,2.1.2,3.1-.2.9-.3,1.7-.7,2.4-1.3-.1.9,0,1.9.2,2.9.3.9.7,1.6,1.2,2.3-.8,0-1.7,0-2.6.3h-.2c2.9,2.8,5.5,5.8,7.8,9,2.5,3.3,4.8,6.8,6.7,10.4.3,0,.5-.1.8-.2.6-.2,1.2-.5,1.8-.9,0,.7,0,1.4.3,2.1.2.6.5,1.2.8,1.7-.6,0-1.2,0-1.9.3h-.2c.7,1.6,1.4,3.1,2,4.6,1.2,2.9,2.2,6,3,9.1.3-.1.6-.3.9-.5,0,.6.1,1.2.3,1.8.2.5.4,1,.6,1.4-.4,0-.8,0-1.2.2.9,4.6,1.2,9.3.5,13.8-.6,3.6-1.7,7-3.8,10.2,0,0,0,0,0,0-.2.4-.5.7-.8,1-3.2,4.2-7.3,6.7-11.9,8-1,.3-2,.5-3,.6-.2.1-.4.2-.6.4,0,0,0-.2,0-.3-1.9.2-3.8.3-5.8.1-2.9-.2-5.7-.4-8.6-.6,0,0,0,0,0,0-1.7-.1-3.3-.2-4.9-.3-1.8-.1-3.5-.4-5.2-1,.1.3.3.5.5.7-.7,0-1.5,0-2.2.3-.8.3-1.6.7-2.2,1.2,0-.8,0-1.5-.3-2.3-.3-.9-.7-1.7-1.3-2.3.2,0,.3,0,.5,0-.4-.2-.7-.5-1.1-.7-1.4-1-2.6-2.2-3.5-3.5-.8-1.1-1.4-2.3-2-3.5-.2-.5-.4-.9-.6-1.4-.4-.8-.7-1.6-1.1-2.4,0,0,0-.2-.1-.2-1-2.5-2.1-5-3.1-7.5-.4,0-.9.1-1.3.3-1.2.4-2.2,1-2.9,1.9.2-1.1.3-2.2,0-3.3-.4-1.3-1.1-2.3-2.1-3.1,1.2.3,2.4.4,3.7,0,.3,0,.5-.2.8-.3-1.7-3.9-3.3-7.9-5-11.8-1.4.5-2.5,1.6-3.2,2.8.7-1.4.9-3,.4-4.6-1-3.3-4.5-5.1-7.7-4.1-3.3,1-5.1,4.5-4.1,7.7,1,3.3,4.5,5.1,7.7,4.1,1.5-.5,2.7-1.5,3.5-2.8-.7,1.4-.8,3-.3,4.6.4,1.3,1.1,2.3,2.1,3.1-1.2-.3-2.4-.4-3.7,0-1.6.5-2.9,1.6-3.7,2.9.7-1.4.8-3,.4-4.5-1-3.3-4.5-5.1-7.7-4.1-3.3,1-5.1,4.5-4.1,7.7,1,3.3,4.5,5.1,7.7,4.1,1.6-.5,2.8-1.5,3.5-2.8-.7,1.4-.9,3.1-.4,4.7.4,1.3,1.1,2.3,2.1,3.1-1.2-.3-2.4-.4-3.7,0-1.6.5-2.9,1.6-3.7,2.9.7-1.4.8-3,.4-4.5-1-3.3-4.5-5.1-7.7-4.1-3.3,1-5.1,4.5-4.1,7.7,1,3.3,4.5,5.1,7.7,4.1,1.6-.5,2.8-1.5,3.5-2.8-.7,1.4-.9,3.1-.4,4.7.4,1.3,1.1,2.3,2.1,3.1-1.2-.3-2.4-.4-3.7,0-1.6.5-2.9,1.6-3.7,2.9.7-1.4.8-3,.4-4.5-1-3.3-4.5-5.1-7.7-4.1-3.3,1-5.1,4.5-4.1,7.7,1,3.3,4.5,5.1,7.7,4.1,1.6-.5,2.8-1.5,3.5-2.8-.7,1.4-.9,3.1-.4,4.7.4,1.3,1.1,2.3,2.1,3.1-1.2-.3-2.4-.4-3.7,0-1.6.5-2.9,1.6-3.7,2.9.7-1.4.8-3,.4-4.5-1-3.3-4.5-5.1-7.7-4.1-3.3,1-5.1,4.5-4.1,7.7,1,3.3,4.5,5.1,7.7,4.1,1.6-.5,2.8-1.5,3.5-2.8-.7,1.4-.9,3.1-.4,4.7.4,1.3,1.1,2.3,2.1,3.1-1.2-.3-2.4-.4-3.7,0-1.6.5-2.9,1.6-3.7,2.9.7-1.4.8-3,.4-4.5-1-3.3-4.5-5.1-7.7-4.1-3.3,1-5.1,4.5-4.1,7.7,1,3.3,4.5,5.1,7.7,4.1,1.6-.5,2.8-1.5,3.5-2.8-.7,1.4-.9,3.1-.4,4.7.4,1.3,1.1,2.3,2.1,3.1-1.2-.3-2.4-.4-3.7,0-1.6.5-2.9,1.6-3.7,2.9.7-1.4.8-3,.4-4.5-1-3.3-4.5-5.1-7.7-4.1-3.3,1-5.1,4.5-4.1,7.7,1,3.3,4.5,5.1,7.7,4.1,1.6-.5,2.8-1.5,3.5-2.8-.7,1.4-.9,3.1-.4,4.7.4,1.3,1.1,2.3,2.1,3.1-1.2-.4-2.5-.4-3.7,0-1.6.5-2.9,1.6-3.7,2.9.7-1.4.8-3,.4-4.5-1-3.3-4.5-5.1-7.7-4.1-3.3,1-5.1,4.5-4.1,7.7,1,3.3,4.5,5.1,7.7,4.1,1.6-.5,2.8-1.5,3.5-2.8-.7,1.4-.9,3.1-.4,4.7.4,1.3,1.2,2.4,2.3,3.2-1.2-.4-2.6-.5-3.9-.1-1.6.5-2.9,1.6-3.7,2.9.7-1.4.8-3,.4-4.5-1-3.3-4.5-5.1-7.7-4.1-3.3,1-5.1,4.5-4.1,7.7,1,3.3,4.5,5.1,7.7,4.1,1.6-.5,2.8-1.5,3.5-2.8-.7,1.4-.9,3.1-.4,4.7.4,1.3,1.2,2.3,2.1,3.1-1.2-.4-2.5-.4-3.8,0-1.6.5-2.9,1.6-3.7,2.9.7-1.4.8-3,.4-4.5-1-3.3-4.5-5.1-7.7-4.1-3.3,1-5.1,4.5-4.1,7.7,1,3.3,4.5,5.1,7.7,4.1,1.6-.5,2.8-1.5,3.5-2.8-.7,1.4-.9,3.1-.4,4.7.1.4.3.7.4,1.1l7.7-9s0,0,0,0l8.3-9.7c-.2-.2-.4-.3-.6-.4.2,0,.5.2.7.3l7.3-8.6c-.4-1.1-1.1-2-1.9-2.6,1.2.4,2.5.4,3.7,0,.2,0,.5-.2.7-.3l3.6-4.2h0s.9-1,.9-1c-.3.2-.6.5-.8.8.2-1.1.2-2.2,0-3.3-.4-1.3-1.1-2.3-2.1-3.1,1.2.3,2.4.4,3.7,0,1.1-.3,2.1-1,2.8-1.8-.3,1-.3,2.2,0,3.3l2.4-2.8c.9-1.1,2.1-1.6,3.5-1.6h6.6c-.3-.7-.8-1.4-1.3-1.9,1,.2,2,.1,3-.2.9-.3,1.7-.7,2.4-1.3-.1.9,0,1.9.2,2.9,0,.2.1.4.2.6h11.2s0,0,0,0h12.5c-.1-.2-.3-.5-.5-.8.7,0,1.5,0,2.2-.3.6-.2,1.2-.5,1.8-.9,0,.6,0,1.3.2,1.9h14s0,0,0,0h10.5s0,0,0,0h1.6s0,0,0,0c.4-.1.8-.3,1.2-.5,0,.2,0,.4,0,.5h12.2s0,0,0,0h13s0,0,0,0h3.8s0,0,0,0h14.8s0,0,0,0h2.9s0,0,0,0h8.4s17,0,17,0h9.4s0,0,0,0h1.3s18,0,18,0h14.2s3.4,0,3.4,0c-.3-.5-.6-1-.8-1.5,0,0,0,0,0,0ZM347.6,212.8c-1.2.4-2.2,1-2.9,1.9.2-1.1.3-2.2,0-3.3-.4-1.3-1.1-2.3-2.1-3.1,1.2.3,2.4.4,3.7,0,1.2-.4,2.1-1.1,2.9-1.9-.3,1.2-.4,2.4,0,3.6.3,1,.9,1.9,1.6,2.7-1-.2-2-.2-3.1.2ZM316.1,292.1c.9-.3,1.7-.7,2.4-1.3-.1.9,0,1.9.2,2.9.3.9.7,1.6,1.3,2.3-.9,0-1.8,0-2.6.2-1,.3-1.8.8-2.5,1.4.1-.9,0-1.8-.2-2.7-.3-1-.9-1.9-1.6-2.6,1,.2,2,.2,3.1-.2ZM305,285.9c1.1-.3,2.1-1,2.8-1.8-.3,1.1-.3,2.3,0,3.5.3,1,.9,1.9,1.6,2.7-1-.2-2-.2-3.1.2-1.2.4-2.2,1-2.9,1.9.2-1.1.3-2.2,0-3.3-.4-1.3-1.1-2.3-2.1-3.1,1.2.3,2.4.4,3.7,0ZM288.6,323.7c-1.2.4-2.2,1-2.9,1.9.2-1.1.2-2.2,0-3.3-.4-1.3-1.1-2.3-2.1-3.1,1.2.3,2.4.4,3.7,0,1.1-.3,2.1-1,2.8-1.8-.3,1.1-.3,2.3,0,3.5.3,1,.9,1.9,1.6,2.6-1-.2-2-.2-3.1.2ZM294.5,312.6c-1.2.4-2.2,1-2.9,1.9.2-1.1.3-2.2,0-3.3-.4-1.3-1.1-2.3-2.1-3.1,1.2.3,2.4.4,3.7,0,1.1-.3,2.1-1,2.8-1.8-.3,1.1-.3,2.3,0,3.5.3,1,.9,1.9,1.6,2.7-1-.2-2.1-.2-3.1.2ZM300.4,301.6c-1.2.4-2.2,1-2.9,1.9.2-1.1.3-2.2,0-3.3-.4-1.3-1.1-2.3-2.1-3.1,1.2.3,2.4.4,3.7,0,1.1-.3,2.1-1,2.8-1.8-.3,1.1-.3,2.3,0,3.5.3,1,.9,1.9,1.6,2.7-1-.2-2.1-.2-3.1.2ZM305.6,318.3c-1,.3-1.8.8-2.5,1.4.1-.9,0-1.8-.2-2.7-.3-1-.9-1.9-1.6-2.6,1,.2,2,.2,3.1-.2.9-.3,1.7-.7,2.4-1.3-.1.9,0,1.9.2,2.9.3.9.7,1.6,1.2,2.3-.8,0-1.7,0-2.6.3ZM311.5,307.2c-1,.3-1.8.8-2.5,1.4.1-.9,0-1.8-.2-2.7-.3-1-.9-1.9-1.6-2.7,1,.2,2,.2,3.1-.2.9-.3,1.7-.7,2.4-1.3-.1.9,0,1.9.2,2.9.3.9.7,1.6,1.2,2.3-.8,0-1.7,0-2.6.3ZM316.6,324c-.8.2-1.5.7-2.2,1.1,0-.8,0-1.5-.3-2.3-.3-.9-.7-1.6-1.2-2.3.8,0,1.7,0,2.6-.3.8-.2,1.4-.6,2.1-1.1,0,.8,0,1.6.3,2.5.2.7.6,1.4,1,2-.7,0-1.5,0-2.2.3ZM322.5,312.9c-.8.3-1.6.7-2.2,1.2,0-.8,0-1.5-.3-2.3-.3-.9-.7-1.6-1.2-2.3.8,0,1.7,0,2.6-.3.8-.2,1.4-.6,2.1-1.1,0,.8,0,1.6.3,2.5.2.7.6,1.4,1,2-.7,0-1.5,0-2.2.3ZM333.5,318.6c-.7.2-1.3.6-1.9,1,0-.6,0-1.3-.3-1.9-.2-.7-.6-1.4-1-2,.7,0,1.5,0,2.2-.3.6-.2,1.2-.5,1.8-.9,0,.7,0,1.4.3,2.1.2.6.5,1.2.8,1.7-.6,0-1.2,0-1.9.3ZM339.4,307.5c-.7.2-1.3.6-1.9,1,0-.6,0-1.3-.3-1.9-.2-.7-.6-1.4-1-2,.7,0,1.5,0,2.2-.3.6-.2,1.2-.5,1.8-.8,0,.7,0,1.4.3,2.1.2.6.5,1.2.8,1.7-.6,0-1.2,0-1.9.3ZM344.5,324.3c-.6.2-1.2.5-1.7.8,0-.5,0-1.1-.2-1.6-.2-.6-.5-1.2-.8-1.7.6,0,1.2,0,1.9-.3.5-.2,1-.4,1.5-.7,0,.6.1,1.2.3,1.8.2.5.4,1,.6,1.4-.5,0-1,.1-1.6.3ZM350.4,313.2c-.6.2-1.1.4-1.6.7,0-.5-.1-1.1-.3-1.6-.2-.6-.5-1.2-.8-1.7.6,0,1.2,0,1.9-.3.5-.2,1-.4,1.5-.7,0,.6.1,1.2.3,1.8.2.5.4,1,.6,1.4-.5,0-1,.1-1.5.3ZM361.5,318.9c-.5.2-1,.4-1.4.6,0-.4-.1-.9-.3-1.3-.2-.5-.4-1-.6-1.4.5,0,1-.1,1.5-.3.4-.1.8-.3,1.2-.5,0,.5.1,1,.3,1.5.1.4.3.8.5,1.2-.4,0-.8.1-1.3.3ZM367.4,307.8c-.5.2-1,.4-1.4.6,0-.4-.1-.9-.3-1.3-.2-.5-.4-1-.7-1.4.5,0,1.1-.1,1.6-.3.4-.1.8-.3,1.2-.5,0,.5.1,1,.3,1.5.1.4.3.8.5,1.2-.4,0-.8.1-1.3.3ZM372.5,324.6c-.4.1-.8.4-1.2.6,0-.4,0-.8-.2-1.1-.1-.4-.3-.8-.5-1.2.4,0,.8-.1,1.3-.3.3-.1.7-.3,1-.4,0,.4.1.8.2,1.2.1.3.3.6.5.9-.4,0-.7.1-1.1.2ZM373.3,296.7c-.5.2-1,.4-1.4.6,0-.4-.1-.9-.3-1.3-.2-.5-.5-1-.7-1.4.5,0,1.1-.1,1.6-.3.4-.1.8-.3,1.2-.5,0,.5.1,1,.3,1.5.1.4.3.8.5,1.2-.4,0-.8.1-1.3.3ZM379.7,226.6c.6-.2,1.2-.5,1.8-.9,0,.7,0,1.4.3,2.1.2.6.5,1.2.8,1.7-.6,0-1.2,0-1.9.3-.7.2-1.3.6-1.9,1,0-.6,0-1.3-.3-1.9-.2-.7-.6-1.4-1-2,.7,0,1.5,0,2.2-.3ZM356.1,219.9c.1-.9,0-1.8-.2-2.7-.3-1-.9-1.9-1.6-2.6,1,.2,2,.2,3.1-.2.9-.3,1.7-.7,2.4-1.3-.1.9,0,1.9.2,2.9.3.9.7,1.6,1.2,2.3-.8,0-1.7,0-2.6.3-1,.3-1.8.8-2.5,1.4ZM363.8,235.3c-.8.3-1.6.6-2.2,1.1,0-.8,0-1.5-.3-2.3-.3-.9-.7-1.6-1.2-2.3.8,0,1.7,0,2.6-.3.8-.2,1.4-.6,2.1-1.1,0,.8,0,1.6.3,2.5.2.7.6,1.4,1,2-.7,0-1.5,0-2.2.3ZM369.7,224.2c-.8.3-1.6.7-2.2,1.2,0-.8,0-1.5-.3-2.3-.3-.9-.7-1.6-1.2-2.3.8,0,1.7,0,2.6-.3.8-.2,1.4-.6,2.1-1.1,0,.8,0,1.6.3,2.5.2.7.6,1.4,1,2-.7,0-1.5,0-2.2.3ZM374.8,241c-.7.2-1.3.6-1.9,1,0-.6,0-1.3-.3-1.9-.2-.7-.6-1.4-1-2,.7,0,1.5,0,2.2-.3.6-.2,1.2-.5,1.8-.9,0,.7,0,1.4.3,2.1.2.6.5,1.2.8,1.7-.6,0-1.2,0-1.9.3ZM378.4,313.5c-.4.1-.8.3-1.2.5,0-.3-.1-.7-.2-1-.1-.4-.3-.8-.5-1.2.4,0,.8-.1,1.3-.3.3-.1.7-.3,1-.4,0,.4.1.8.2,1.2.1.3.3.6.4,1-.3,0-.7,0-1,.2ZM379.2,285.6c-.5.2-1,.4-1.4.6,0-.4-.1-.9-.3-1.3-.2-.5-.4-1-.7-1.4.5,0,1.1-.1,1.6-.3.4-.1.8-.3,1.2-.5,0,.5.1,1,.3,1.5.1.4.3.8.5,1.2-.4,0-.8.1-1.3.3ZM379.9,257.8c-.6.2-1.1.4-1.6.8,0-.5-.1-1.1-.3-1.6-.2-.6-.5-1.2-.8-1.7.6,0,1.2,0,1.9-.3.5-.2,1-.4,1.5-.7,0,.6.1,1.2.3,1.8.2.5.4,1,.6,1.4-.5,0-1,.1-1.5.3ZM384.3,302.4c-.4.1-.8.3-1.2.5,0-.3-.1-.7-.2-1-.1-.4-.3-.8-.5-1.2.4,0,.8-.1,1.3-.3.3-.1.7-.3,1-.4,0,.4.1.8.2,1.2.1.3.3.7.4,1-.3,0-.7,0-1,.2ZM385.1,274.5c-.5.2-1,.4-1.4.6,0-.4-.1-.9-.3-1.3-.2-.5-.4-1-.6-1.4.5,0,1-.1,1.5-.3.4-.1.8-.3,1.2-.5,0,.5.1,1,.3,1.5.1.4.3.8.5,1.2-.4,0-.8.1-1.3.3ZM385.8,246.7c-.6.2-1.1.4-1.6.7,0-.5-.1-1.1-.3-1.6-.2-.6-.5-1.2-.8-1.7.6,0,1.2,0,1.9-.3.5-.2,1-.4,1.5-.7,0,.6.1,1.2.3,1.8.2.5.4,1,.6,1.4-.5,0-1,.1-1.5.3ZM389.4,319.2c-.3,0-.6.2-.9.4,0-.3,0-.5-.2-.8-.1-.3-.3-.6-.4-1,.3,0,.7,0,1-.2.3,0,.5-.2.8-.3,0,.3,0,.7.2,1,0,.3.2.5.3.7-.3,0-.5,0-.8.2ZM390.2,291.3c-.4.1-.8.3-1.2.5,0-.4-.1-.7-.2-1-.1-.4-.3-.8-.5-1.2.4,0,.8-.1,1.3-.3.3-.1.7-.3,1-.4,0,.4.1.8.2,1.2.1.3.3.7.4,1-.3,0-.7,0-1,.2ZM390.9,263.4c-.5.2-1,.4-1.4.6,0-.4-.1-.9-.3-1.3-.2-.5-.4-1-.6-1.4.5,0,1-.1,1.5-.3.4-.1.8-.3,1.2-.5,0,.5.1,1,.3,1.5.1.4.3.8.5,1.2-.4,0-.8.1-1.3.3ZM391.7,235.6c-.6.2-1.1.4-1.6.7,0-.5-.1-1.1-.3-1.6-.2-.6-.5-1.2-.8-1.7.6,0,1.2,0,1.9-.3.5-.2,1-.4,1.5-.7,0,.6.1,1.2.3,1.8.2.5.4,1,.6,1.4-.5,0-1,.1-1.5.3ZM395.3,308.1c-.3.1-.6.3-.9.4,0-.3,0-.5-.2-.8-.1-.3-.3-.6-.4-1,.3,0,.7,0,1-.2.3,0,.5-.2.8-.3,0,.3,0,.7.2,1,0,.3.2.5.3.7-.3,0-.5,0-.8.2ZM396.1,280.2c-.4.1-.8.3-1.2.5,0-.3-.1-.7-.2-1-.1-.4-.3-.8-.5-1.2.4,0,.8-.1,1.3-.3.3-.1.7-.3,1-.4,0,.4.1.8.2,1.2.1.3.3.6.4,1-.3,0-.7,0-1,.2ZM396.8,252.4c-.5.2-1,.4-1.4.6,0-.4-.1-.9-.3-1.3-.2-.5-.4-1-.6-1.4.5,0,1-.1,1.5-.3.4-.1.8-.3,1.2-.5,0,.5.1,1,.3,1.5.1.4.3.8.5,1.2-.4,0-.8.1-1.3.3ZM400.4,324.9c-.3,0-.5.2-.7.3,0-.2,0-.4-.1-.6,0-.3-.2-.5-.3-.7.3,0,.5,0,.8-.2.2,0,.4-.2.5-.2,0,.3,0,.5.2.8,0,.2.2.4.2.5-.2,0-.4,0-.6,0ZM401.2,297c-.3.1-.6.3-.9.4,0-.3,0-.5-.2-.8-.1-.3-.3-.6-.4-1,.3,0,.7,0,1-.2.3,0,.5-.2.8-.3,0,.3,0,.7.2,1,0,.3.2.5.3.7-.3,0-.5,0-.8.2ZM402,269.1c-.4.1-.8.3-1.2.5,0-.3-.1-.7-.2-1-.1-.4-.3-.8-.5-1.2.4,0,.8-.1,1.3-.3.3-.1.7-.3,1-.4,0,.4.1.8.2,1.2.1.3.3.6.4,1-.3,0-.7.1-1,.2ZM402.7,241.3c-.5.2-1,.4-1.4.6,0-.4-.1-.9-.3-1.3-.2-.5-.4-1-.6-1.4.5,0,1-.1,1.5-.3.5-.1.9-.4,1.3-.6,0,.5,0,1,.2,1.6.1.4.3.8.5,1.2-.4,0-.8.1-1.3.3ZM406.3,313.8c-.3,0-.5.2-.7.3,0-.2,0-.4-.1-.6,0-.3-.2-.5-.3-.7.3,0,.5,0,.8-.2.2,0,.4-.2.5-.2,0,.3,0,.5.2.8,0,.2.1.3.2.5-.2,0-.4,0-.5.1ZM407.1,285.9c-.3.1-.6.3-.9.4,0-.3,0-.5-.2-.8-.1-.3-.3-.6-.4-1,.3,0,.7,0,1-.2.3,0,.5-.2.8-.3,0,.3,0,.7.2,1,0,.3.2.5.3.7-.3,0-.5,0-.8.2ZM407.9,258c-.4.1-.8.3-1.2.5,0-.3-.1-.7-.2-1-.1-.4-.3-.8-.5-1.2.4,0,.8-.1,1.3-.3.3-.1.7-.3,1-.4,0,.4.1.8.2,1.2.1.3.3.6.4,1-.3,0-.7,0-1,.2ZM412.2,302.7c-.3,0-.5.2-.7.3,0-.2,0-.4-.1-.6,0-.3-.2-.5-.3-.7.3,0,.5,0,.8-.2.2,0,.4-.2.5-.2,0,.3,0,.5.2.8,0,.2.1.3.2.5-.2,0-.4,0-.5.1ZM413,274.8c-.3.1-.6.3-.9.4,0-.3,0-.5-.2-.8-.1-.3-.3-.6-.4-1,.3,0,.7,0,1-.2.3,0,.5-.2.8-.3,0,.3,0,.7.2,1,0,.3.2.5.3.7-.3,0-.5,0-.8.2ZM413.8,246.9c-.4.1-.8.3-1.2.5,0-.3-.1-.7-.2-1-.1-.4-.3-.8-.5-1.2.4,0,.8-.1,1.3-.3.3-.1.6-.3,1-.4,0,.4.1.8.3,1.3.1.4.3.7.4,1-.3,0-.7,0-1,.2ZM417.4,319.5c-.2,0-.3.1-.5.2,0-.1,0-.2,0-.3,0-.2-.1-.3-.2-.5.2,0,.4,0,.5-.1.1,0,.2,0,.3-.1,0,.2,0,.4.1.5,0,.1,0,.2.1.3-.1,0-.2,0-.3,0ZM418.1,291.6c-.3,0-.5.2-.7.3,0-.2,0-.4-.1-.6,0-.3-.2-.5-.3-.7.3,0,.5,0,.8-.2.2,0,.4-.2.5-.2,0,.3,0,.5.2.8,0,.2.1.3.2.5-.2,0-.4,0-.5.1ZM418.9,263.7c-.3.1-.6.3-.9.4,0-.3,0-.5-.2-.8-.1-.3-.3-.6-.4-1,.3,0,.7,0,1-.2.3,0,.5-.2.8-.3,0,.3,0,.7.2,1,0,.3.2.5.3.7-.3,0-.5,0-.8.2ZM423.3,308.4c-.2,0-.3.1-.5.2,0-.1,0-.2,0-.3,0-.2-.1-.3-.2-.5.2,0,.4,0,.5-.1.1,0,.2,0,.3-.1,0,.2,0,.3.1.5,0,.1,0,.2.1.3-.1,0-.2,0-.3,0ZM424,280.5c-.3,0-.5.2-.7.3,0-.2,0-.4-.1-.6,0-.3-.2-.5-.3-.7.3,0,.5,0,.8-.2.2,0,.4-.2.5-.2,0,.3,0,.5.2.8,0,.2.1.3.2.5-.2,0-.4,0-.5.1ZM428.4,325.1c0,0-.2,0-.3.1,0,0,0,0,0,0,0-.1,0-.2-.1-.3.1,0,.2,0,.3,0,0,0,0,0,0,0,0,0,0,.2,0,.3,0,0,0,0,0,0,0,0,0,0,0,0ZM429.2,297.3c-.2,0-.3.1-.5.2,0-.1,0-.2,0-.3,0-.2-.1-.3-.2-.5.2,0,.4,0,.5-.1.1,0,.2,0,.3-.1,0,.2,0,.3.1.5,0,.1,0,.2.1.3-.1,0-.2,0-.3,0ZM429.9,269.4c-.3,0-.5.2-.7.3,0-.2,0-.4-.1-.6,0-.3-.2-.5-.3-.7.3,0,.5,0,.8-.2.2,0,.4-.2.6-.2,0,.3,0,.5.1.8,0,.2.1.3.2.5-.2,0-.4,0-.5.1ZM434.3,314.1c0,0-.2,0-.3.1,0,0,0,0,0,0,0-.1,0-.2-.1-.3.1,0,.2,0,.3,0,0,0,0,0,0,0,0,0,0,.2,0,.3,0,0,0,0,0,0,0,0,0,0,0,0ZM435.1,286.2c-.2,0-.3.1-.5.2,0-.1,0-.2,0-.3,0-.2-.1-.3-.2-.5.2,0,.4,0,.5-.1.1,0,.2,0,.3-.1,0,.2,0,.3.1.5,0,.1,0,.2.1.3-.1,0-.2,0-.3,0ZM440.2,303c0,0-.2,0-.3.1,0,0,0,0,0,0,0-.1,0-.2-.1-.3.1,0,.2,0,.3,0,0,0,0,0,0,0,0,0,0,.2,0,.3,0,0,0,0,0,0,0,0,0,0,0,0ZM440.9,275.1c-.2,0-.3.1-.5.2,0-.1,0-.2,0-.3,0-.2-.1-.3-.2-.5.2,0,.4,0,.5-.1,0,0,.2,0,.3,0,0,.2,0,.3.1.5,0,0,0,.2.1.3,0,0-.2,0-.3,0ZM446.1,291.9c0,0-.2,0-.3.1,0,0,0,0,0,0,0-.1,0-.2-.1-.3.1,0,.2,0,.3,0,0,0,0,0,0,0,0,0,0,.2,0,.3,0,0,0,0,0,0,0,0,0,0,0,0Z"/>
</svg>