<?xml version="1.0" encoding="UTF-8"?>
<svg xmlns="http://www.w3.org/2000/svg" version="1.1" xmlns:xlink="http://www.w3.org/1999/xlink" viewBox="0 0 313.8 309.2">
  <defs>
    <style>
      .cls-1 {
        fill: #9e5eff;
        fill-rule: evenodd;
      }

      .cls-2 {
        fill: none;
      }

      .cls-3 {
        fill: url(#linear-gradient);
      }

      .cls-4 {
        clip-path: url(#clippath);
      }
    </style>
    <clipPath id="clippath">
      <path class="cls-2" d="M240.7,191.9c-.7-7.7-3-15.1-7-22.1-2.7-4.7-6.3-9.1-10.8-13.1-3.2-2.8-5.1-4.2-5.6-4.3-5.7,1.8-11.5,3.6-17.2,5.1.7,7.2,1.5,14.3,2.2,21.4.7,7.1,1.5,14.3,2.2,21.4,0,.9.2,1.5.2,2,.1,1.4.3,2.5.6,3.3.3.8.7,1.5,1.2,2.2,1.3,1.9,3.1,3.2,5.3,4,3,1.1,6,2.3,9.1,3.4,5.3,2,9.9,1.5,13.9-1.6,4.9-4.1,6.9-11.4,6-21.8M226.2,114.9c-.5-6.1-3.9-9.9-9.9-11.1-2-.4-5-.5-8.9-.1-1.8.2-3.3.5-4.2.7-3,.9-5,2.3-5.9,4.3-.9,1.9-1.2,4.1-1,6.7.9,9.3,1.9,18.6,2.8,28,2-.6,3.9-1.2,5.8-1.8,5.1-2.2,8.8-4.3,11.2-6.1,7.3-6,10.7-12.8,10-20.4ZM99.8,210.7c1.9,10.2,5.7,16.8,11.5,19.4,4.6,1.9,9.2,1.2,13.8-2.1,2.6-1.9,5.2-3.8,7.8-5.7,1.9-1.4,3.3-3.1,4.1-5.3.3-.8.5-1.6.6-2.5,0-.8,0-1.9-.3-3.3,0-.4-.2-1.1-.3-1.9-1.2-7.1-2.3-14.2-3.5-21.2-1.2-7.1-2.4-14.1-3.5-21.2-5.9,0-11.9-.1-17.9-.4-.5.2-1.9,2-4.3,5.6-3.3,5-5.6,10.2-7,15.4-2,7.8-2.3,15.6-.9,23.2ZM93.5,132.7c1.3,7.5,6.4,13.2,15,17,2.8,1.1,7,2.1,12.4,2.9,2,0,4.1.2,6.1.2-1.5-9.2-3.1-18.5-4.6-27.7-.4-2.5-1.3-4.5-2.7-6.2-1.4-1.6-3.6-2.5-6.8-2.6-1,0-2.4.2-4.2.4-3.9.7-6.8,1.5-8.6,2.5-5.5,2.8-7.7,7.3-6.6,13.4ZM173.6,226l-115.1,73.2s-6.3-64.9,8.6-104c.2-.7.5-1.3.7-2,.7-1.7,1.4-3.3,2.3-4.9.4-.7.7-1.5,1.1-2.2,1.9-3.5,4.1-6.6,6.6-9.3,1.6-1.9,3.4-3.8,5.3-5.7,4.7-4.3,7.7-6.5,9.2-7-1.4-.4-2.7-.7-4.1-1.1-1.4-.2-3.1-.7-5.1-1.6-2.7-1.1-5.6-2.6-8.6-4.3l-2.4-1.1c-.6-.4-1.3-.9-1.9-1.4-26.4-16.1-60.2-47.2-60.2-47.2l106.8-28.5,27.8-69,45,59.3,110.6-.7s-24.5,39-45.7,61.4c-.5.6-.9,1.2-1.4,1.8l-2,1.7c-2.5,2.4-4.9,4.6-7.2,6.4-1.8,1.4-3.3,2.3-4.5,2.9-1.2.7-2.4,1.4-3.6,2.1,1.5,0,5.1,1.5,10.7,4.4,2.3,1.3,4.5,2.6,6.6,4.1,3.1,2,6,4.3,8.8,7.2.6.6,1.1,1.2,1.7,1.8,1.2,1.3,2.4,2.7,3.5,4.2.4.6.8,1.1,1.2,1.7,24.7,33.8,35.7,98.1,35.7,98.1l-130.3-40.2Z"/>
    </clipPath>
    <linearGradient id="linear-gradient" x1="57.4" y1="68.9" x2="425.3" y2="385.8" gradientUnits="userSpaceOnUse">
      <stop offset="0" stop-color="#ffca05"/>
      <stop offset="1" stop-color="#fff"/>
    </linearGradient>
  </defs>
  <!-- Generator: Adobe Illustrator 28.6.0, SVG Export Plug-In . SVG Version: 1.2.0 Build 709)  -->
  <g>
    <g id="Layer_1">
      <path class="cls-1" d="M215.4,163.4c-1.6.5-3.1.9-4.7,1.4.4,4.4.9,8.8,1.3,13.1.7,7.1,1.5,14.3,2.2,21.4,0,.6.1,1.3.2,1.9,0,.3,0,.6,0,.8.2.2.4.3.7.4,3,1.1,6,2.3,9,3.4,1.5.6,2.8.9,4.1,0,2.9-2.6,2.6-9.9,2.4-13.2-.5-6.4-2.5-12.5-5.7-18-2.3-4-5.3-7.5-8.8-10.6-.3-.2-.5-.5-.8-.7M208.4,113.5c-.8.1-1.6.2-2.3.4,0,.2,0,.3,0,.4.5,4.9,1,9.8,1.5,14.8.9-.5,1.7-1,2.4-1.6,3.7-3,6.7-6.8,6.3-11.7-.2-1.7-.3-2-2.1-2.3-1.5-.3-4.2,0-5.8,0ZM121.5,176.8c-1.6,0-3.3,0-4.9-.1-.2.3-.4.6-.6.9-2.5,3.9-4.5,8-5.7,12.5-1.6,6.2-1.9,12.6-.8,18.9.6,3.3,2.3,10.4,5.8,12.1,1.5.6,2.7-.1,4-1.1,2.6-1.9,5.2-3.8,7.8-5.7.2-.2.4-.3.5-.6,0-.3,0-.6-.1-.8-.1-.6-.2-1.3-.3-1.9-1.2-7.1-2.3-14.2-3.5-21.2-.7-4.3-1.5-8.7-2.2-13ZM112.4,140.6c.8.3,1.8.6,2.7.9-.8-4.9-1.6-9.8-2.4-14.6,0-.1,0-.3,0-.4-.8,0-1.6.2-2.3.3-1.6.3-4.3.8-5.6,1.5-1.6.8-1.7,1-1.4,2.8.9,4.9,4.8,7.7,9.1,9.7ZM175,236.9l-111.3,70.7c-3,1.9-6.5,2.1-9.7.5-3.2-1.6-5.2-4.4-5.5-8-.7-7.5-1.1-15.2-1.3-22.7-.4-16.2,0-32.7,2-48.8,1.5-12.4,4-25.2,8.4-36.9.3-.7.5-1.4.8-2.1,0,0,0-.1,0-.2.8-1.9,1.7-3.8,2.6-5.7.4-.8.8-1.7,1.3-2.5,2.2-4,4.8-7.7,7.8-11.1.8-.9,1.6-1.9,2.5-2.8-1-.5-1.9-1-2.9-1.5l-2.1-1c-.5-.3-1-.5-1.5-.8-.6-.4-1.2-.9-1.8-1.3-7.1-4.3-13.9-9.2-20.5-14.2-14-10.5-27.9-22.1-40.8-34-2.7-2.5-3.8-6.1-2.9-9.7.9-3.6,3.5-6.3,7.1-7.2l102-27.2L135.4,6.2c1.4-3.4,4.2-5.6,7.9-6.1,3.6-.5,7,.9,9.2,3.8l42,55.3,105.6-.6c3.7,0,6.9,1.8,8.7,5.1,1.8,3.2,1.7,7-.3,10.1-9.3,14.8-19.7,29.7-30.4,43.5-5.1,6.5-10.4,13-16.1,19.1-.5.6-.9,1.2-1.4,1.7-.4.5-.7.8-1.2,1.2l-1.7,1.5c-.8.8-1.6,1.5-2.3,2.2,1,.7,2.1,1.3,3.1,2,3.8,2.4,7.3,5.4,10.5,8.6.6.7,1.3,1.3,1.9,2,1.4,1.5,2.8,3.1,4,4.8.5.6.9,1.3,1.4,2,7.4,10.1,13.1,21.8,17.8,33.4,6.1,15,10.9,30.8,14.8,46.5,1.8,7.3,3.5,14.8,4.8,22.2.6,3.5-.6,6.8-3.2,9.1-2.7,2.3-6.1,3.1-9.5,2l-126-38.9Z"/>
      <g class="cls-4">
        <rect class="cls-3" x="9.9" y="9.9" width="294" height="289.3"/>
      </g>
    </g>
  </g>
</svg>