<?xml version="1.0" encoding="UTF-8"?>
<svg id="Layer_1" xmlns="http://www.w3.org/2000/svg" viewBox="0 0 2923.3 965.97">
  <defs>
    <style>
      .cls-1 {
        fill: #231f20;
      }
    </style>
  </defs>
  <g id="Layer_1-2" data-name="Layer_1">
    <path class="cls-1" d="M74.69,463.78V44.59h331.18c10.56,0,23.76.29,39.01,1.17,15.55.88,31.39,2.64,47.81,5.87s31.97,8.8,46.35,16.72c14.37,7.92,26.11,18.77,35.2,32.85,9.09,13.79,13.49,31.68,13.49,53.68s-3.52,30.51-10.27,44c-7.04,13.49-19.36,24.35-37.25,33.15-17.89,8.8-43.71,14.08-77.74,16.13v2.93c38.72.88,68.93,5.87,90.06,14.96,21.41,8.8,36.08,20.53,44.59,34.61s12.91,30.51,12.91,48.69-4.69,41.65-14.37,56.32c-9.68,14.67-22.29,25.81-37.84,33.73-15.84,7.92-32.85,13.79-51.04,17.01-18.48,3.52-36.37,5.57-54.27,6.45s-33.44,1.17-46.64,1.17H74.69v-.29ZM184.11,209.16h207.68c13.2,0,26.69-.59,39.89-1.76s24.35-4.69,33.44-10.56c9.09-5.57,13.49-15.55,13.49-29.33s-4.11-22.88-12.32-28.16c-8.21-5.57-19.07-8.8-32.27-9.68-13.2-.88-27.28-1.47-42.24-1.47h-207.68v81.26-.29ZM184.99,381.06h210.91c17.01,0,33.15-.59,48.4-1.76s27.57-5.28,37.25-12.03c9.68-6.75,14.37-17.89,14.37-33.73s-4.69-26.99-14.08-33.44c-9.39-6.45-21.41-10.27-36.67-11.44s-31.39-1.76-48.99-1.76h-211.2v94.46-.29Z"/>
    <path class="cls-1" d="M743.8,471.11c-29.92,0-53.39-6.45-70.99-19.07s-30.21-30.51-37.55-53.97c-7.33-23.17-11.15-51.04-11.15-83.31s3.81-60.13,11.15-84.19c7.33-23.76,19.95-42.24,37.55-55.44s41.36-19.65,70.99-19.65,39.31,2.93,52.8,8.51c13.2,5.57,23.76,12.32,31.09,19.65s14.08,17.01,19.95,28.16h1.47v-56.61h114.99v308.01h-97.39l-17.6-41.65h-1.47c.59,0-.88,2.35-4.11,7.33s-8.8,10.56-16.43,17.01-18.48,12.03-31.97,17.01-30.8,7.33-51.63,7.33l.29.88ZM791.03,385.46c18.19,0,31.39-3.23,39.6-9.97s13.49-15.55,15.55-26.4c2.05-10.85,3.23-22,3.23-33.44s-1.17-23.17-3.23-33.73-7.33-19.36-15.55-25.81c-8.21-6.45-21.41-9.68-39.6-9.68s-31.39,3.23-39.6,9.97-13.49,15.25-15.55,25.81c-2.05,10.56-3.23,21.71-3.23,33.44s1.17,23.17,3.23,33.73c2.05,10.56,7.33,19.36,15.55,26.11,8.21,6.75,21.41,9.97,39.6,9.97Z"/>
    <path class="cls-1" d="M976.42,463.78l120.56-159.28-113.23-148.72h120.56l63.07,91.52,62.19-91.52h121.44l-112.64,148.72,119.68,159.28h-119.68l-70.99-99.74-70.11,99.74h-120.86Z"/>
    <path class="cls-1" d="M1368.03,226.17v-70.69c9.68,0,18.19-.88,25.52-2.64,7.33-1.76,14.08-5.28,19.65-10.56,5.57-5.28,9.97-12.91,12.91-23.47,2.93-10.56,4.4-24.35,4.4-41.65h87.71v78.03h74.22v70.69h-224.41v.29ZM1517.93,463.78c-31.97,0-57.2-7.04-75.98-20.83-18.77-13.79-27.87-39.31-27.87-75.98v-150.19h103.84v167.5h76.56v79.5h-76.56,0Z"/>
    <path class="cls-1" d="M1770.2,475.22c-39.89,0-72.16-7.33-96.51-22.29-24.35-14.96-42.53-34.03-53.97-57.79-11.44-23.47-17.6-48.11-18.77-73.92-1.17-33.73,5.28-62.77,19.07-87.42,13.79-24.64,33.44-43.41,58.67-56.61s54.27-19.65,87.42-19.65,59.55,6.16,84.19,18.19c24.64,12.03,44.29,29.33,58.37,51.63,14.08,22.29,21.12,48.99,21.12,80.38v19.36h-223.53c0,21.71,5.57,37.84,17.01,47.52,11.44,9.97,26.11,14.96,44.29,14.96s27.87-3.23,37.25-9.97c9.39-6.75,14.67-15.25,16.43-25.81h107.66c-1.47,21.71-8.51,41.95-20.83,60.72-12.32,18.48-29.92,33.44-52.8,44.29-22.88,10.85-51.33,16.43-85.36,16.43h.29ZM1818.31,285.43c-.59-8.8-2.35-16.43-5.57-22.29s-8.51-11.15-15.84-15.55-18.48-6.75-32.85-6.75-25.52,2.35-33.44,6.75-13.49,9.68-16.43,15.55-4.99,13.49-5.87,22.29h110.3-.29Z"/>
    <path class="cls-1" d="M1952.66,463.78V155.48h105.31l7.04,90.06-.88,66.88v151.07h-111.76l.29.29ZM2064.42,340.87l-2.35-69.23c-.59-8.8.88-19.95,4.4-33.15,3.52-13.2,9.97-26.11,19.07-38.72,9.39-12.61,22.59-23.17,39.6-31.68,17.01-8.51,38.72-12.61,64.53-12.61h7.04v115.28h-7.92c-19.65,0-37.25.88-53.09,2.35-15.84,1.47-28.75,4.4-39.01,8.8s-18.48,11.44-24.05,20.83c-5.57,9.39-8.51,22-8.51,37.84l.29.29Z"/>
    <path class="cls-1" d="M74.69,914.64v-418.89h193.9l66.29,375.77h1.47l64.53-375.77h193.31v418.89h-115.87l7.92-375.18h-.88l-70.11,375.18h-161.92l-68.64-375.18h-1.47l7.04,375.18h-115.58Z"/>
    <path class="cls-1" d="M796.6,875.63c-30.8,0-59.55-5.57-85.95-17.01-26.4-11.44-47.52-28.75-63.36-52.21-15.84-23.17-24.05-52.21-24.05-87.12,1.17-34.32,9.39-63.36,24.64-87.12,15.55-23.76,36.08-41.95,62.19-54.56,26.11-12.61,55.15-19.07,87.12-19.07s68.35,6.75,92.99,19.95c24.64,13.49,43.41,30.21,55.73,50.16,12.61,20.24,18.77,40.19,18.77,60.72h-101.5c-2.64-14.37-9.09-25.23-19.07-32.27-9.97-7.33-24.35-10.85-43.12-10.85s-29.04,2.64-39.01,8.21c-9.97,5.57-17.6,12.91-22.88,22.29-4.99,9.39-7.63,20.53-7.63,33.44,0,23.47,5.57,41.95,16.72,55.73,11.15,13.79,29.33,20.83,54.27,20.83s27.28-3.81,39.01-11.15c11.73-7.33,18.77-19.65,21.41-36.37h101.5c0,21.71-6.16,43.12-18.77,63.95-12.61,20.83-31.39,38.13-56.32,51.63s-56.03,20.53-93.28,20.53l.59.29Z"/>
    <path class="cls-1" d="M985.22,914.64v-418.89h110.88v418.89h-110.88ZM1094.64,788.8v-113.82l162.8-179.23h145.2v9.68l-308.01,283.66v-.29ZM1285.6,914.64l-149.31-212.96,80.67-73.63,195.66,276.91v9.68h-127.02Z"/>
    <path class="cls-1" d="M1537.29,921.97c-39.89,0-72.16-7.33-96.51-22.29s-42.53-34.03-53.97-57.79c-11.44-23.47-17.6-48.11-18.77-73.92-1.17-33.73,5.28-62.77,19.07-87.42,13.79-24.64,33.44-43.41,58.67-56.61s54.27-19.65,87.42-19.65,59.55,6.16,84.19,18.19c24.64,12.03,44.29,29.33,58.37,51.63,14.08,22.29,21.12,48.99,21.12,80.38v19.36h-223.53c0,21.71,5.57,37.84,17.31,47.52,11.44,9.97,26.11,14.96,44.29,14.96s27.87-3.23,37.25-9.97c9.39-6.75,14.67-15.25,16.43-25.81h107.66c-1.47,21.71-8.51,41.95-20.83,60.72-12.32,18.48-29.92,33.44-52.8,44.29-22.88,10.85-51.33,16.43-85.36,16.43h0ZM1585.1,732.18c-.59-8.8-2.35-16.43-5.57-22.29-3.23-5.87-8.51-11.15-15.84-15.55s-18.48-6.75-32.85-6.75-25.52,2.35-33.44,6.75c-7.92,4.4-13.49,9.68-16.43,15.55-2.93,5.87-4.99,13.49-5.87,22.29h110.3-.29Z"/>
    <path class="cls-1" d="M1717.98,914.64v-308.01h96.51l18.48,56.61h1.47c5.87-11.44,12.61-20.83,19.95-28.16,7.33-7.33,17.89-14.08,31.39-19.65,13.49-5.57,31.09-8.51,52.21-8.51s43.12,4.11,57.79,12.03c14.67,7.92,25.81,18.19,33.44,30.8,7.63,12.61,12.91,26.4,15.55,41.07,2.64,14.67,4.11,28.75,4.4,42.53,0,13.79.29,25.23.29,34.61v147.26h-108.54v-148.14c0-10.85-.88-21.71-2.93-31.97-1.76-10.56-6.45-19.36-14.08-26.4-7.33-7.33-20.24-10.85-38.43-10.85s-30.21,3.52-37.55,10.85-12.03,16.13-13.49,26.4c-1.47,10.27-2.35,21.12-2.35,31.97v148.14h-114.99l.88-.59Z"/>
    <path class="cls-1" d="M2066.18,914.64v-74.51l175.71-160.75h-164.56v-75.1h291.29v73.04l-169.26,161.63h169.26v75.98h-302.43v-.29Z"/>
    <path class="cls-1" d="M2441.95,572.9c-22.29,0-37.25-5.28-45.17-16.13-7.63-10.56-11.44-22.88-11.44-36.96s3.81-25.23,11.44-35.79c7.63-10.56,22.88-15.55,45.17-15.55s37.25,5.28,44.29,15.55c7.04,10.56,10.85,22.29,10.85,35.79s-3.52,26.11-10.85,36.96c-7.04,10.56-22,16.13-44.29,16.13ZM2385.92,914.64v-308.01h111.76v308.01h-111.76Z"/>
    <path class="cls-1" d="M2684.83,921.97c-39.89,0-72.16-7.33-96.51-22.29-24.35-14.96-42.53-34.03-53.97-57.79-11.44-23.47-17.6-48.11-18.77-73.92-1.17-33.73,5.28-62.77,19.07-87.42,13.79-24.64,33.44-43.41,58.67-56.61s54.27-19.65,87.42-19.65,59.55,6.16,84.19,18.19c24.64,12.03,44.29,29.33,58.37,51.63,14.08,22.29,21.12,48.99,21.12,80.38v19.36h-223.53c0,21.71,5.57,37.84,17.31,47.52,11.44,9.97,26.11,14.96,44.29,14.96s27.87-3.23,37.25-9.97c9.39-6.75,14.67-15.25,16.43-25.81h107.66c-1.47,21.71-8.51,41.95-20.83,60.72-12.32,18.48-29.92,33.44-52.8,44.29-22.88,10.85-51.33,16.43-85.36,16.43h0ZM2732.94,732.18c-.59-8.8-2.35-16.43-5.57-22.29-3.23-5.87-8.51-11.15-15.84-15.55s-18.48-6.75-32.85-6.75-25.52,2.35-33.44,6.75-13.49,9.68-16.43,15.55c-2.93,5.87-4.99,13.49-5.87,22.29h110.3-.29Z"/>
  </g>
</svg>